<?xml version="1.0" standalone="no"?>
<!DOCTYPE svg PUBLIC "-//W3C//DTD SVG 20010904//EN"
 "http://www.w3.org/TR/2001/REC-SVG-20010904/DTD/svg10.dtd">
<svg version="1.0" xmlns="http://www.w3.org/2000/svg"
 width="1280.000000pt" height="1207.000000pt" viewBox="0 0 1280.000000 1207.000000"
 preserveAspectRatio="xMidYMid meet">
<g transform="translate(0.000000,1207.000000) scale(0.100000,-0.100000)"
fill="#ffffff" stroke="none">
<path d="M4238 12056 c-97 -26 -171 -94 -309 -283 l-89 -122 -35 -453 c-50
-644 -78 -959 -235 -2700 -192 -2115 -281 -3181 -268 -3194 4 -3 80 -1 170 5
248 17 835 29 1633 36 1243 10 1789 32 2355 96 569 64 860 140 1202 313 772
392 1439 1163 2020 2334 76 155 89 185 77 196 -8 7 -138 89 -289 181 -368 225
-903 560 -1920 1200 -1863 1172 -2713 1684 -3590 2162 -286 156 -514 244 -629
242 -25 0 -67 -6 -93 -13z m1942 -1861 c360 -114 686 -466 980 -1060 216 -437
294 -735 294 -1120 -1 -220 -16 -322 -74 -497 -109 -326 -358 -587 -701 -733
-69 -30 -373 -115 -409 -115 -11 0 -180 337 -180 357 0 6 36 13 79 17 95 8
237 42 342 83 134 52 235 119 345 228 87 87 106 112 146 195 62 127 79 200 85
354 10 231 -34 450 -150 746 l-41 105 -18 -103 c-20 -112 -66 -239 -119 -328
-118 -198 -378 -374 -627 -426 -273 -57 -527 33 -747 263 -99 104 -181 226
-256 383 -102 215 -149 409 -149 616 0 350 144 646 412 848 149 112 283 177
428 208 99 21 255 12 360 -21z m2279 -3112 c35 -70 59 -129 54 -130 -5 -2
-358 -175 -784 -384 -426 -210 -888 -437 -1027 -504 l-252 -124 -61 121 c-33
66 -59 124 -57 129 2 7 2041 1016 2058 1018 3 1 34 -56 69 -126z"/>
<path d="M5834 9835 c-163 -35 -325 -159 -399 -305 -85 -168 -93 -380 -23
-600 32 -99 102 -243 162 -334 63 -95 179 -209 251 -247 l50 -27 231 22 c262
24 263 25 362 130 181 192 211 480 83 806 -120 307 -313 510 -530 556 -80 17
-107 16 -187 -1z"/>
<path d="M3251 10788 c-297 -558 -622 -1157 -1503 -2773 -845 -1550 -1154
-2121 -1518 -2810 l-233 -440 6 -210 c9 -291 36 -465 102 -661 61 -183 157
-345 267 -450 102 -98 192 -135 328 -135 68 0 89 5 166 38 339 146 675 396
1354 1008 457 411 721 671 781 769 21 35 23 47 49 421 11 160 29 409 40 555
11 146 29 393 40 550 30 409 56 774 80 1095 11 154 70 962 130 1795 60 833
111 1541 114 1573 3 31 5 57 3 57 -1 0 -94 -172 -206 -382z m-378 -2098 c39
-31 50 -80 44 -189 -18 -324 -243 -821 -533 -1180 -21 -26 -23 -31 -8 -24 66
34 131 18 155 -39 19 -46 17 -185 -5 -283 -159 -717 -633 -1459 -1144 -1789
-105 -68 -252 -129 -252 -104 0 9 21 81 106 369 3 13 20 18 68 21 193 12 524
305 731 648 173 285 300 697 252 812 -39 92 -122 57 -382 -160 -41 -35 -75
-57 -75 -50 1 7 22 83 48 169 l47 157 130 109 c228 193 347 337 457 557 100
200 168 463 138 535 -13 34 -44 47 -84 37 -81 -20 -329 -246 -531 -485 -60
-71 -111 -128 -113 -127 -5 5 99 351 111 365 89 116 404 440 512 527 161 130
268 171 328 124z"/>
<path d="M6910 11048 c3 -3 230 -146 505 -318 275 -172 732 -459 1015 -638
1649 -1041 2475 -1546 2750 -1683 177 -88 410 -188 650 -279 162 -61 749 -260
768 -260 11 0 -181 190 -306 303 -387 352 -863 685 -1317 923 -113 59 -4002
1931 -4055 1951 -8 4 -13 4 -10 1z"/>
<path d="M10982 7893 c-278 -557 -585 -1040 -910 -1438 -104 -126 -369 -405
-487 -511 -278 -251 -512 -412 -820 -564 l-180 -89 17 -548 c73 -2430 141
-4609 144 -4612 10 -11 169 102 229 163 78 79 118 142 175 275 36 83 418 785
2766 5092 891 1633 897 1645 880 1731 -13 69 -33 81 -256 148 -428 129 -996
352 -1347 529 -46 22 -87 41 -92 41 -6 0 -59 -98 -119 -217z m448 -1648 c0 -2
-31 -85 -69 -183 l-70 -179 -534 -709 c-550 -731 -653 -870 -799 -1084 -162
-237 -277 -456 -339 -645 -28 -87 -33 -114 -33 -208 l-1 -109 33 -29 c41 -36
85 -38 165 -5 124 51 265 157 486 365 67 62 121 112 121 110 0 -2 -37 -99 -83
-216 l-82 -212 -95 -81 c-289 -248 -490 -367 -641 -378 -114 -8 -165 31 -195
149 -35 137 18 377 152 689 145 337 310 584 1008 1514 300 401 538 726 529
723 -10 -3 -195 -77 -412 -166 -217 -89 -395 -160 -397 -158 -3 2 133 357 140
364 6 6 1099 452 1109 453 4 0 7 -2 7 -5z"/>
<path d="M8185 5164 c-242 -66 -670 -122 -1155 -154 -480 -30 -730 -35 -1800
-32 -1272 3 -1578 -6 -1904 -54 -116 -17 -83 7 -408 -304 -910 -872 -1432
-1296 -1833 -1490 -183 -88 -258 -113 -327 -107 -32 3 -58 4 -58 2 0 -2 44
-37 98 -77 98 -74 251 -170 392 -246 105 -56 6557 -2636 6655 -2661 217 -55
404 -53 563 6 l43 16 -6 136 c-3 75 -21 694 -40 1376 -19 682 -39 1389 -45
1570 -5 182 -19 670 -30 1085 -23 874 -27 960 -43 959 -7 -1 -52 -12 -102 -25z
m-2705 -1439 c97 -22 208 -65 290 -112 97 -56 247 -210 290 -298 33 -66 35
-76 35 -170 0 -92 -3 -105 -33 -169 -25 -53 -53 -90 -115 -151 l-82 -81 65 13
c223 42 490 19 688 -62 220 -90 433 -304 495 -500 57 -180 9 -346 -147 -501
-94 -93 -186 -155 -346 -235 -464 -230 -926 -282 -1292 -145 -145 55 -239 117
-369 246 -97 96 -122 128 -152 190 -93 192 -59 367 101 529 43 43 91 88 107
100 17 13 23 20 14 18 -53 -17 -226 -29 -333 -24 -253 12 -435 87 -597 247
-136 135 -186 245 -176 388 6 91 33 159 101 249 157 212 610 428 1021 487 71
10 363 -3 435 -19z"/>
<path d="M5010 3450 c-106 -15 -237 -57 -346 -110 -241 -119 -328 -279 -244
-447 71 -141 232 -257 410 -294 88 -19 278 -6 385 25 119 35 297 124 362 181
112 98 143 232 83 352 -40 81 -152 187 -243 231 -116 56 -274 80 -407 62z"/>
<path d="M5845 2530 c-108 -17 -238 -60 -355 -117 -98 -48 -126 -67 -191 -132
-87 -87 -112 -143 -111 -245 3 -173 207 -388 439 -463 106 -34 303 -43 421
-19 168 34 332 103 449 190 156 114 206 269 136 417 -79 167 -245 299 -442
350 -88 23 -258 32 -346 19z"/>
</g>
</svg>
