<?xml version="1.0" encoding="UTF-8" standalone="no"?>
<svg
   xmlns:dc="http://purl.org/dc/elements/1.1/"
   xmlns:cc="http://creativecommons.org/ns#"
   xmlns:rdf="http://www.w3.org/1999/02/22-rdf-syntax-ns#"
   xmlns:svg="http://www.w3.org/2000/svg"
   xmlns="http://www.w3.org/2000/svg"
   xmlns:sodipodi="http://sodipodi.sourceforge.net/DTD/sodipodi-0.dtd"
   xmlns:inkscape="http://www.inkscape.org/namespaces/inkscape"
   width="1280"
   height="1190"
   preserveAspectRatio="xMidYMid meet"
   version="1.1"
   id="svg4844"
   sodipodi:docname="castlebackdrop.svg"
   inkscape:version="0.92.2 (5c3e80d, 2017-08-06)">
  <metadata
     id="metadata4850">
    <rdf:RDF>
      <cc:Work
         rdf:about="">
        <dc:format>image/svg+xml</dc:format>
        <dc:type
           rdf:resource="http://purl.org/dc/dcmitype/StillImage" />
      </cc:Work>
    </rdf:RDF>
  </metadata>
  <defs
     id="defs4848" />
  <sodipodi:namedview
     pagecolor="#ffffff"
     bordercolor="#666666"
     borderopacity="1"
     objecttolerance="10"
     gridtolerance="10"
     guidetolerance="10"
     inkscape:pageopacity="0"
     inkscape:pageshadow="2"
     inkscape:window-width="1920"
     inkscape:window-height="1057"
     id="namedview4846"
     showgrid="false"
     inkscape:zoom="0.74789916"
     inkscape:cx="640"
     inkscape:cy="595"
     inkscape:window-x="-8"
     inkscape:window-y="-8"
     inkscape:window-maximized="1"
     inkscape:current-layer="svg4844" />
  <g
     id="g4681">
    <title
       id="title4678">background</title>
    <rect
       fill="none"
       id="canvas_background"
       height="402"
       width="582"
       y="-1"
       x="-1" />
  </g>
  <g
     id="g4842"
     transform="matrix(-1,0,0,1,1280.3843,0)">
    <title
       id="title4683">Layer 1</title>
    <g
       id="svg_1"
       transform="matrix(0.1,0,0,-0.1,0,1190)"
       style="fill:#03a9f4">
      <path
         id="svg_2"
         d="m 7230,11887 c 0,-8 10,-23 23,-35 18,-17 36,-22 80,-22 50,0 57,2 57,19 0,11 5,23 10,26 27,17 2,25 -80,25 -68,0 -90,-3 -90,-13 z"
         inkscape:connector-curvature="0"
         style="fill:#3e687f" />
      <path
         id="svg_3"
         d="m 7075,11879 c -22,-5 -67,-13 -100,-18 -70,-10 -145,-30 -163,-44 -16,-13 -164,-77 -176,-77 -5,0 -31,-18 -57,-40 -26,-22 -52,-40 -56,-40 -14,0 -53,-57 -45,-64 4,-4 19,8 34,26 l 28,33 -1,-85 c -1,-127 -1,-124 15,-111 9,8 14,37 15,94 1,79 3,83 36,117 l 35,35 v -73 c 0,-73 6,-84 34,-56 11,10 16,34 16,75 v 60 l 46,19 c 25,11 48,20 50,20 2,0 4,-38 4,-85 0,-47 4,-85 9,-85 36,0 41,12 41,105 v 92 l 39,17 c 21,10 49,16 62,14 22,-3 24,-8 27,-65 3,-63 6,-68 36,-57 12,5 16,21 16,71 0,47 3,64 13,60 6,-2 26,0 42,5 17,4 42,6 56,3 24,-5 28,-12 34,-61 5,-46 10,-54 28,-55 21,-1 20,-1 -2,-8 -55,-15 -23,-53 37,-44 35,6 40,14 17,33 -8,7 -15,26 -15,42 0,25 -3,29 -20,25 -19,-5 -20,0 -20,64 v 69 l -37,-1 c -21,-1 -56,-5 -78,-10 z"
         inkscape:connector-curvature="0"
         style="fill:#3e687f" />
      <path
         id="svg_4"
         d="m 7464,11883 c -5,-2 -7,-46 -6,-98 l 4,-95 h -31 c -17,0 -31,-4 -31,-10 0,-5 14,-10 30,-10 h 30 v -87 c 0,-49 -5,-155 -11,-238 -8,-99 -11,-528 -9,-1273 2,-837 -1,-1126 -9,-1136 -8,-10 -9,-16 -1,-21 6,-4 10,-71 10,-185 v -178 l -62,-9 c -59,-7 -64,-10 -80,-43 -15,-30 -16,-45 -7,-100 5,-36 8,-110 7,-165 l -3,-100 -109,-10 c -89,-9 -111,-14 -122,-30 -21,-29 -28,-65 -15,-78 7,-7 11,-64 11,-164 v -153 h -52 c -29,0 -62,-3 -74,-6 -19,-5 -22,0 -27,55 -8,73 -31,124 -55,119 -9,-2 -24,-17 -34,-34 -16,-27 -19,-64 -25,-265 -6,-240 6,-312 18,-101 l 6,117 -1,-145 -1,-145 -55,-2 c -141,-7 -155,-11 -180,-54 -16,-30 -19,-44 -11,-52 7,-7 11,-62 11,-153 0,-152 -1,-154 -52,-154 h -21 l 6,413 c 4,226 7,939 7,1584 v 1171 l 30,7 30,7 v 190 190 l -27,-6 -28,-6 v 175 c 0,97 2,166 5,153 7,-29 17,-13 26,40 6,39 5,41 -21,44 -22,2 -31,12 -46,48 -15,39 -18,76 -18,263 -1,133 3,226 9,238 8,13 7,19 0,19 -8,0 -11,23 -8,70 2,39 0,70 -4,70 -4,0 -8,17 -10,38 -2,20 -2,-120 1,-313 4,-314 6,-355 23,-394 15,-35 16,-46 6,-58 -10,-12 -9,-17 5,-24 16,-9 17,-96 17,-1312 0,-716 -3,-1596 -7,-1954 l -6,-653 h -53 c -70,0 -81,-6 -105,-52 -19,-37 -19,-41 -4,-58 14,-15 16,-40 14,-150 -2,-131 -2,-132 26,-167 l 28,-35 2,-792 c 1,-435 4,-801 6,-813 2,-16 23,-30 78,-54 92,-40 111,-58 111,-104 0,-40 -1,-40 -40,-20 -32,16 -42,55 -15,55 23,0 18,28 -6,35 -12,4 -59,25 -105,46 -91,42 -169,53 -180,24 -5,-12 -10,-13 -32,-1 l -27,14 3,176 c 2,146 5,176 17,176 8,0 15,6 15,14 0,8 -40,31 -94,55 -73,32 -106,41 -150,41 -31,0 -56,-4 -56,-8 0,-5 6,-9 13,-9 22,0 157,-65 157,-75 0,-6 -6,-8 -12,-5 -10,3 -12,-17 -10,-86 l 4,-91 -34,26 c -35,27 -39,48 -27,138 4,35 3,35 -71,72 -51,25 -89,37 -118,38 h -44 l 52,-41 c 34,-27 50,-46 46,-56 -3,-8 -6,-49 -6,-91 l -1,-77 -34,37 -35,38 v -43 c 0,-23 -1,-342 -3,-709 l -2,-667 -150,-5 c -203,-7 -442,14 -567,49 -27,8 -48,12 -48,10 0,-11 89,-48 157,-65 69,-18 373,-40 556,-40 h 59 l -4,-1064 c -2,-585 -6,-1067 -9,-1070 -3,-3 -32,3 -64,14 -71,24 -170,26 -266,4 -55,-12 -80,-25 -121,-60 -29,-24 -54,-44 -57,-44 -36,-1 -196,-32 -230,-44 -24,-9 -46,-15 -48,-13 -24,25 -33,1162 -19,2477 5,465 6,842 2,839 -4,-3 -11,-321 -16,-705 -5,-384 -14,-814 -20,-954 -5,-140 -14,-376 -20,-525 -6,-148 -15,-331 -20,-405 -6,-74 -15,-256 -20,-405 -7,-221 -12,-280 -28,-324 l -18,-54 -84,-23 c -69,-18 -90,-28 -117,-58 l -33,-35 -15,29 c -14,27 -14,29 7,35 23,8 23,16 -2,315 -5,63 -14,171 -19,240 -6,69 -15,188 -22,265 -11,137 -9,250 11,560 5,83 14,222 19,310 6,88 16,242 22,343 12,181 12,183 -9,212 -12,16 -22,40 -22,53 0,23 7,26 85,42 l 85,18 1,46 c 1,25 3,53 4,61 1,8 3,77 4,153 1,92 5,137 12,137 6,0 9,-6 6,-13 -7,-19 36,-56 64,-54 37,2 50,25 43,77 -8,58 -26,78 -70,77 -19,-1 -34,-4 -34,-8 0,-11 38,-21 50,-14 13,8 13,-11 -1,-37 -8,-15 -8,-22 1,-28 15,-9 5,-30 -14,-30 -8,0 -16,17 -20,40 -6,40 -19,52 -30,28 -2,-7 -5,77 -4,186 0,192 1,199 17,168 15,-28 18,-30 28,-14 9,14 10,11 8,-18 -1,-19 3,-39 9,-43 7,-6 4,-6 -8,-3 -15,5 -17,2 -12,-19 5,-18 2,-25 -9,-25 -9,0 -15,-9 -15,-24 0,-13 -3,-31 -6,-40 -4,-11 -1,-16 10,-16 9,0 21,-11 26,-25 12,-31 24,-32 44,-3 15,21 16,21 17,3 1,-11 5,4 10,34 6,36 6,58 -1,66 -8,9 -8,15 0,20 5,3 10,1 10,-5 0,-6 5,-8 11,-4 7,4 9,27 4,70 -4,39 -2,70 5,83 10,20 8,21 -58,21 h -69 l -28,63 c -15,34 -29,68 -32,75 -5,11 9,13 65,10 64,-3 69,-2 61,14 -8,15 -23,18 -77,18 -38,0 -73,5 -79,11 -28,28 -114,-72 -132,-152 -6,-24 -11,-120 -11,-212 0,-125 -3,-169 -12,-171 -7,-2 -44,-9 -83,-16 -38,-6 -113,-20 -165,-30 -152,-29 -176,-33 -165,-22 6,6 21,12 35,14 l 25,3 3,200 c 1,110 7,204 12,209 5,5 16,6 25,2 14,-5 15,-9 6,-20 -9,-11 -9,-16 0,-21 6,-4 14,-3 18,2 5,9 58,9 67,0 2,-2 -11,-19 -29,-39 -25,-27 -29,-38 -20,-47 9,-8 14,-7 21,5 7,13 10,13 20,1 10,-12 7,-16 -18,-20 -34,-7 -37,-21 -17,-79 11,-31 16,-35 27,-25 10,9 11,9 6,0 -4,-7 0,-23 8,-35 16,-23 18,-21 30,35 4,15 2,36 -4,47 -9,16 -8,20 5,20 12,0 14,9 10,43 l -5,42 14,-35 c 14,-34 14,-33 15,58 l 1,92 h -65 -65 l -15,37 c -9,21 -15,53 -13,73 l 3,35 48,-2 c 61,-2 59,21 -2,25 -39,3 -42,5 -37,25 3,12 6,32 6,45 0,17 6,22 24,22 25,0 36,21 36,73 0,17 -5,27 -15,27 -10,0 -15,10 -15,28 0,33 14,57 28,48 5,-3 12,6 15,20 3,19 1,24 -11,19 -12,-4 -14,3 -8,47 4,29 11,71 17,93 5,22 11,57 14,78 4,23 11,37 20,37 11,0 15,-13 15,-50 0,-27 4,-50 8,-50 20,0 42,39 42,73 v 37 h 49 50 l 5,-52 c 3,-29 5,-92 4,-141 0,-48 2,-90 6,-94 3,-3 6,25 6,64 0,54 4,72 15,77 8,3 15,13 15,23 0,15 -2,15 -15,-3 -13,-17 -14,-13 -15,47 0,36 2,68 4,70 10,10 211,-10 214,-21 3,-8 8,-8 18,1 11,9 14,46 14,171 v 159 l 38,-2 c 91,-3 88,2 82,-100 -3,-50 -3,-92 -1,-95 2,-2 12,12 22,31 21,38 25,105 9,136 -10,17 -7,19 35,19 h 45 v -72 c 0,-50 -5,-76 -15,-88 -17,-19 -10,-50 11,-50 10,0 14,-21 16,-82 2,-54 7,-83 16,-86 9,-3 12,18 12,82 0,70 3,86 15,86 12,0 15,-20 15,-116 0,-88 3,-115 13,-112 6,3 13,23 15,46 3,34 7,42 23,42 17,0 19,-7 19,-70 0,-40 4,-70 10,-70 6,0 10,30 10,71 v 70 l 33,-3 32,-3 3,-73 c 2,-63 5,-73 20,-70 14,3 18,18 22,78 l 5,75 46,3 46,3 6,-53 c 4,-29 7,-68 7,-85 0,-37 0,-37 35,-21 23,11 25,16 25,85 v 73 h 65 65 v -86 c 0,-74 2,-85 16,-80 9,3 27,6 40,6 23,0 24,3 24,58 v 57 h -32 -33 l -3,78 c -3,70 -5,77 -23,77 -11,0 -37,-11 -57,-25 l -37,-25 -3,24 c -3,23 -6,24 -93,25 -67,0 -102,-4 -140,-19 -79,-31 -79,-31 -79,60 0,73 -2,80 -20,80 -18,0 -20,7 -20,75 0,61 3,75 16,75 11,0 9,8 -11,34 -14,19 -44,92 -66,162 -23,71 -49,156 -60,188 -10,33 -19,76 -19,97 0,21 -4,41 -10,44 -5,3 -10,20 -10,37 0,21 6,31 20,35 26,7 26,23 0,30 -11,3 -20,12 -20,19 0,8 -9,14 -20,14 -11,0 -20,-7 -20,-15 0,-8 -7,-15 -15,-15 -8,0 -15,-7 -15,-15 0,-8 7,-15 15,-15 17,0 22,-65 5,-75 -6,-3 -10,-22 -10,-42 0,-58 -112,-414 -128,-408 -8,3 -31,5 -52,5 h -38 l -7,103 c -4,56 -12,108 -17,115 -6,6 -8,34 -6,62 4,41 2,53 -17,70 -20,19 -45,27 -45,15 0,-3 9,-15 20,-27 14,-16 20,-36 20,-70 0,-26 -2,-48 -5,-48 -2,0 -12,14 -20,30 -9,17 -20,28 -25,25 -5,-3 2,-22 15,-42 19,-28 25,-48 25,-92 l -1,-56 -19,24 c -12,14 -20,38 -20,62 v 39 h -50 -51 l -35,74 c -42,88 -59,183 -38,207 8,8 14,21 14,27 0,14 -31,31 -47,25 -15,-5 -18,-53 -3,-53 18,0 11,-90 -11,-141 -12,-27 -25,-49 -30,-49 -5,0 -6,7 -3,15 4,8 3,23 -1,33 -14,30 -13,62 2,62 18,0 16,16 -4,40 -21,24 -43,26 -43,5 0,-8 -7,-15 -15,-15 -8,0 -15,-7 -15,-15 0,-8 7,-15 16,-15 13,0 15,-7 10,-32 -4,-18 -7,-49 -7,-68 0,-19 -7,-51 -17,-70 l -17,-35 h -205 -205 l -3,68 c -2,42 1,67 8,67 5,0 10,7 10,15 0,8 -7,15 -15,15 -10,0 -15,11 -15,35 0,24 -5,35 -15,35 -10,0 -15,-11 -15,-35 0,-22 -5,-35 -13,-35 -10,0 -12,-19 -9,-85 4,-66 2,-85 -9,-85 -7,0 -55,8 -106,17 -70,12 -97,21 -104,35 -7,14 -22,18 -60,18 h -50 l 2,63 c 2,37 -2,72 -10,86 -12,21 -18,23 -62,19 l -50,-5 2,58 c 2,40 -3,65 -15,83 -15,23 -23,26 -75,26 -83,0 -98,-19 -100,-127 l -1,-43 h -53 c -48,0 -56,-3 -75,-30 -17,-22 -19,-30 -8,-30 17,0 26,-21 26,-61 0,-28 -2,-29 -48,-29 h -47 l -26,58 -26,59 -109,16 c -60,10 -117,17 -126,17 -11,0 -68,-74 -159,-206 l -142,-205 -102,-69 -102,-68 -249,9 c -137,5 -348,13 -469,17 l -220,9 -75,-58 C 1079,5448 939,5315 810,5184 629,5001 579,4945 594,4942 c 10,-2 22,1 26,8 9,14 20,-321 20,-616 0,-144 4,-235 10,-239 6,-4 10,-101 10,-259 v -253 l 77,-7 c 42,-3 212,-6 378,-6 342,0 395,-4 395,-30 0,-15 -20,-21 -112,-38 -109,-20 -895,-151 -1048,-174 -71,-11 -112,-29 -97,-44 4,-4 66,3 139,15 73,12 136,21 141,21 4,0 7,-11 7,-24 0,-27 -10,-31 -107,-42 -35,-3 -68,-13 -74,-20 -18,-22 13,-27 84,-15 104,18 97,24 97,-82 v -93 l -62,-2 c -35,-1 -76,-6 -93,-12 -23,-8 -9,-9 58,-5 67,4 92,2 102,-9 14,-13 -34,-21 -242,-40 -29,-3 -62,-10 -74,-17 -20,-10 -20,-12 -6,-21 10,-5 21,-7 26,-4 5,3 72,10 149,16 77,5 152,14 165,19 19,7 29,6 37,-5 11,-12 7,-14 -21,-14 -88,-1 -291,-20 -307,-29 -15,-9 -15,-10 3,-10 11,0 94,6 185,13 91,7 171,11 177,9 36,-14 -1,-21 -139,-27 -208,-9 -231,-15 -193,-46 21,-18 245,-3 245,16 0,15 6,16 32,6 15,-6 11,-15 -27,-63 -50,-64 -72,-76 -93,-55 -12,12 -11,15 7,21 11,3 21,10 21,15 0,4 11,11 25,14 14,4 25,14 25,22 0,22 -49,10 -72,-16 -22,-27 -41,-26 -33,1 5,15 4,19 -5,14 -6,-4 -49,-9 -93,-11 -63,-3 -85,-8 -94,-21 -10,-13 -10,-19 -1,-24 8,-5 2,-10 -15,-14 -15,-4 -27,-11 -27,-15 0,-14 24,-18 43,-8 10,5 26,6 36,3 19,-6 36,18 26,35 -2,4 13,10 35,14 22,3 40,11 40,16 0,6 5,10 11,10 8,0 9,-4 0,-13 -6,-8 -8,-17 -4,-20 3,-4 -1,-7 -10,-7 -21,0 -21,-9 -2,-37 13,-18 13,-22 0,-33 -8,-6 -19,-9 -25,-5 -6,4 -38,4 -71,0 -55,-6 -59,-9 -59,-32 0,-21 4,-24 23,-20 53,13 117,18 128,11 22,-13 -20,-23 -101,-23 l -76,-1 1,27 c 0,18 -7,31 -22,38 -20,10 -20,12 -5,38 23,37 6,54 -39,38 -17,-6 -47,-11 -65,-11 -25,0 -34,-5 -39,-21 -9,-26 8,-39 53,-39 21,0 31,-4 27,-11 -4,-5 -4,-21 -1,-34 5,-18 14,-25 39,-27 28,-4 26,-5 -20,-12 -38,-6 -53,-13 -56,-27 -3,-11 -2,-21 1,-23 6,-2 55,-1 103,3 3,1 11,12 17,26 14,31 32,33 32,4 0,-21 3,-22 68,-14 37,4 102,9 145,10 83,2 93,6 84,30 -4,10 -21,15 -49,16 l -43,1 45,10 c 72,15 74,16 60,33 -8,10 -31,15 -68,15 -63,0 -63,9 0,21 46,9 118,1 99,-11 -8,-4 -4,-13 10,-26 25,-23 120,-25 159,-4 17,9 59,13 130,11 58,-1 116,2 130,8 19,7 -4,10 -95,12 -119,2 -118,2 60,10 279,13 295,15 295,40 0,14 -161,11 -285,-6 -280,-38 -294,-39 -315,-20 -24,21 -26,55 -5,55 8,0 15,-5 15,-11 0,-18 333,-2 458,21 125,24 119,24 125,1 3,-12 33,-34 73,-55 58,-29 64,-35 41,-36 -26,0 -77,-41 -77,-60 0,-13 -89,-29 -250,-45 -307,-31 -393,-44 -424,-67 -19,-13 -33,-18 -41,-12 -67,50 -60,48 -143,29 -61,-13 -85,-15 -117,-6 -26,7 -54,7 -80,1 -22,-5 -74,-10 -116,-10 -55,0 -80,-4 -89,-15 -20,-24 -1,-55 48,-76 26,-11 55,-28 66,-37 33,-30 77,-132 83,-191 6,-60 25,-91 54,-91 10,0 42,9 70,20 28,12 54,19 56,16 2,-2 -16,-18 -42,-36 -25,-17 -44,-37 -42,-43 4,-13 10,-13 125,-1 l 74,7 -4,-141 c -4,-168 -11,-185 -67,-151 -32,19 -33,22 -27,67 14,103 17,157 7,137 -16,-36 -51,-59 -109,-70 l -57,-12 -1,-54 c 0,-30 -1,-61 -3,-69 -5,-31 -20,25 -20,79 -1,43 -6,60 -28,86 -16,17 -33,40 -39,51 -10,16 -14,17 -38,6 -17,-7 -26,-18 -24,-29 2,-13 -4,-19 -22,-21 -14,-1 -35,-5 -47,-7 l -23,-5 V 996 22 l 323,-7 c 177,-4 495,-4 707,0 212,3 1205,7 2208,7 1003,1 1819,4 1815,8 -4,4 -44,12 -87,19 -44,6 -81,13 -83,15 -15,14 -24,139 -19,243 5,81 3,129 -4,143 -16,29 -74,55 -184,83 -108,28 -146,48 -146,78 0,31 15,53 58,83 40,27 40,27 93,12 64,-19 215,-36 319,-36 122,0 122,1 120,-194 -1,-88 1,-225 5,-303 l 7,-143 h 296 297 l -45,26 c -25,14 -48,31 -52,37 -4,7 -8,135 -8,284 0,267 1,274 25,339 43,113 37,128 -80,222 -58,47 -86,63 -129,72 -46,9 -67,22 -135,82 -44,40 -78,75 -75,79 2,4 33,17 68,29 l 63,21 149,-70 c 397,-184 463,-218 470,-246 4,-14 -1,-63 -10,-108 -22,-114 -21,-124 25,-212 46,-86 49,-111 65,-422 l 7,-133 h -159 c -124,-1 -155,-3 -139,-12 24,-14 240,-13 279,2 15,5 63,10 106,10 h 79 l -24,43 c -14,23 -32,71 -41,106 -14,55 -14,77 -4,165 11,89 10,110 -4,158 -22,76 -20,118 9,254 38,175 32,214 -35,249 -16,8 -64,45 -107,81 -43,37 -94,74 -113,82 -22,10 -85,18 -166,23 -143,7 -199,24 -244,73 -32,35 -17,46 66,46 34,0 90,2 125,5 37,3 54,1 39,-3 -20,-7 -10,-13 70,-41 118,-41 238,-77 310,-91 63,-12 112,-38 134,-72 9,-13 21,-68 28,-121 10,-81 10,-105 -2,-145 -30,-98 -23,-128 58,-246 39,-59 72,-113 72,-121 0,-8 -9,-29 -20,-47 -39,-65 -23,-131 70,-276 33,-52 33,-53 17,-86 -8,-19 -13,-37 -10,-40 4,-3 161,-6 349,-6 h 343 l 7,46 c 11,77 -1,198 -26,250 -25,50 -74,88 -130,99 -111,22 -154,107 -180,355 -15,147 -25,187 -87,339 -64,158 -68,209 -19,226 26,9 31,6 60,-27 33,-38 69,-61 80,-51 15,15 4,58 -24,90 -52,59 -30,73 36,23 21,-16 42,-30 46,-30 4,0 14,13 23,30 22,43 56,57 231,91 l 157,31 81,-21 c 99,-27 288,-116 339,-160 20,-19 47,-47 58,-63 l 21,-29 -23,-25 c -13,-14 -28,-39 -34,-57 -9,-28 -16,-33 -50,-37 -32,-4 -41,-9 -43,-28 -4,-24 25,-77 71,-129 35,-40 60,-42 142,-8 33,14 68,25 77,25 10,0 58,-16 108,-36 102,-41 116,-54 191,-183 76,-129 95,-151 158,-178 85,-38 151,-91 172,-138 17,-39 42,-172 55,-297 l 5,-58 h 496 495 l -6,28 c -19,93 -27,225 -16,294 6,39 13,74 15,76 2,2 -3,22 -11,44 -8,22 -14,52 -14,67 0,14 -11,45 -24,68 l -24,41 23,39 c 13,21 31,67 40,103 9,36 25,79 36,96 l 19,32 -26,16 c -31,21 -27,38 13,48 38,10 45,26 31,74 -14,52 -36,82 -61,86 -25,3 -29,27 -7,39 100,51 198,89 230,89 33,0 44,-6 75,-42 44,-52 82,-129 91,-185 5,-33 2,-51 -15,-83 l -21,-40 h 40 c 43,0 57,-12 35,-30 -21,-17 -62,-5 -102,31 -38,33 -72,44 -107,35 -28,-7 -34,-20 -38,-96 l -3,-55 70,-5 c 68,-5 70,-6 67,-30 -2,-14 -5,-32 -5,-40 -2,-18 95,-70 130,-70 15,0 28,-10 38,-31 27,-50 48,-35 60,43 5,37 15,73 22,79 20,20 33,-1 33,-52 v -49 h 75 75 v -43 c 0,-42 2,-44 152,-185 83,-78 154,-142 158,-142 12,0 18,33 12,68 -3,26 -13,37 -44,53 -33,17 -45,32 -70,86 -16,36 -40,77 -54,91 -36,40 -53,83 -52,133 0,25 -7,60 -16,77 l -17,32 h 39 c 27,0 58,-12 103,-39 35,-21 68,-37 72,-34 25,15 -36,117 -80,134 -38,14 -22,33 35,39 28,3 54,8 58,12 3,4 -9,35 -28,70 -25,45 -48,72 -84,96 -44,31 -54,34 -104,29 -53,-4 -110,7 -110,22 0,19 42,42 87,47 34,5 71,0 121,-14 l 72,-20 21,30 22,31 80,-7 c 133,-11 157,-37 157,-167 0,-58 -4,-72 -26,-98 -36,-43 -27,-69 51,-148 71,-73 81,-75 151,-28 44,30 63,31 95,6 13,-10 43,-28 66,-39 23,-12 45,-27 49,-34 4,-6 10,-50 13,-97 l 6,-86 43,-3 c 72,-5 249,66 301,122 23,24 23,26 7,51 -22,33 -43,41 -163,60 -116,18 -133,23 -133,36 0,14 75,46 140,60 30,7 63,19 72,27 10,9 56,17 121,22 57,5 121,16 142,24 54,23 92,20 120,-8 13,-13 72,-47 130,-75 58,-27 130,-71 160,-97 l 55,-46 V 626 c 0,-100 -3,-117 -25,-162 -14,-27 -36,-62 -50,-78 l -24,-30 -78,61 c -43,33 -108,79 -145,101 l -68,42 -17,-33 c -17,-31 -18,-31 -21,-8 -5,33 7,123 18,141 8,12 14,10 34,-15 l 24,-30 7,27 c 5,20 1,38 -14,64 -12,20 -19,44 -16,54 7,24 -62,87 -78,71 -8,-8 -8,-20 0,-41 6,-17 10,-30 9,-30 -2,0 -38,9 -81,20 -43,11 -82,20 -87,20 -4,0 -5,-18 -2,-39 5,-32 2,-45 -15,-67 -11,-15 -21,-31 -21,-35 0,-5 32,-9 70,-9 53,0 70,-3 70,-14 0,-19 -18,-31 -78,-51 -46,-15 -56,-23 -69,-54 -8,-20 -24,-48 -34,-63 -31,-43 -22,-42 39,6 57,45 136,81 153,70 19,-11 8,-32 -31,-58 -23,-15 -38,-31 -35,-35 2,-5 26,-12 52,-16 58,-8 64,-11 56,-31 -4,-12 -23,-14 -97,-12 -73,2 -96,-1 -117,-15 -34,-22 -53,-68 -45,-103 6,-23 11,-25 34,-20 52,13 67,12 64,-5 -1,-9 5,-22 13,-29 27,-22 17,-57 -35,-116 -27,-31 -50,-61 -50,-66 0,-4 106,-8 235,-8 h 235 v 33 c 0,68 49,116 190,189 57,30 86,50 88,63 8,52 16,66 72,130 64,72 73,102 44,143 -15,21 -14,22 20,22 39,0 35,7 65,-120 11,-47 29,-114 41,-150 12,-36 36,-119 54,-185 l 33,-120 47,-3 c 42,-3 47,-1 42,15 -2,10 -10,38 -16,63 -6,25 -40,137 -75,250 -35,113 -73,238 -85,278 -27,94 -69,142 -164,186 -75,35 -252,171 -321,247 -22,24 -65,74 -94,111 -46,58 -65,73 -145,112 -100,50 -175,105 -156,116 8,5 8,14 -1,34 -11,23 -10,30 10,57 30,40 25,73 -11,77 -16,2 -28,6 -28,9 0,3 16,59 35,124 l 35,117 -46,129 c -49,136 -81,201 -168,352 -35,59 -58,111 -62,140 -3,25 -17,96 -29,156 -13,61 -29,153 -35,205 -10,79 -54,359 -100,638 -22,134 -38,158 -217,345 -90,95 -174,177 -186,184 -12,7 -34,12 -48,13 -15,0 -39,3 -55,6 l -29,6 -3,126 c -2,70 -7,168 -12,217 -13,120 -12,845 0,964 9,80 8,97 -5,111 -14,15 -15,112 -13,824 l 3,808 27,23 c 22,19 24,25 13,36 -19,20 -26,239 -8,239 17,0 16,3 -3,48 l -16,37 -9,-26 c -9,-23 -17,-27 -71,-33 -33,-3 -85,-6 -114,-6 -29,0 -56,-5 -60,-11 -4,-8 25,-9 105,-4 l 111,8 v -34 c 0,-19 3,-65 7,-103 5,-62 4,-69 -10,-63 -9,3 -71,55 -137,114 l -121,108 3,110 c 3,105 4,110 26,113 22,3 22,2 22,-114 0,-116 0,-117 20,-99 17,16 20,31 20,112 0,76 3,93 15,93 19,0 19,4 0,40 -14,27 -21,30 -63,30 -34,0 -43,3 -32,10 12,8 9,12 -17,22 -30,11 -33,16 -33,55 0,24 5,43 10,43 21,0 8,17 -25,33 -19,9 -42,31 -51,48 l -16,32 -19,-24 c -16,-22 -26,-24 -120,-27 l -103,-4 17,26 c 13,19 17,48 17,111 0,69 3,85 15,85 14,0 14,4 -1,32 l -16,31 -17,-21 c -14,-19 -30,-23 -110,-29 l -94,-6 16,24 c 13,17 17,45 17,105 0,55 4,84 12,86 9,3 9,12 -2,37 l -13,33 -17,-22 c -13,-18 -30,-23 -86,-27 l -69,-6 19,22 c 11,11 29,22 40,22 18,1 19,2 2,6 -16,4 -18,13 -14,68 4,59 2,64 -20,74 -12,6 -25,11 -27,11 -2,0 -5,-50 -7,-111 l -3,-111 73,6 72,7 v -111 c 0,-70 -4,-110 -10,-110 -15,0 -50,39 -129,142 l -66,88 -220,109 c -266,132 -356,173 -502,231 -112,44 -113,45 -113,78 0,19 6,35 14,38 13,5 13,11 -1,40 -9,19 -21,34 -25,34 -5,0 -42,-5 -81,-10 -40,-6 -89,-13 -109,-15 l -38,-5 v 280 280 l 35,14 c 21,9 35,22 35,32 0,10 -23,63 -51,117 l -52,100 -28,241 c -16,133 -34,282 -41,331 -6,50 -12,134 -12,187 -1,53 -4,100 -9,104 -4,4 -7,28 -7,53 0,25 -5,53 -10,61 -7,11 -10,-3 -10,-46 0,-42 -5,-65 -15,-74 -18,-15 -20,-46 -4,-56 6,-3 9,-24 7,-45 -3,-28 1,-39 13,-42 13,-4 17,-27 22,-138 26,-509 29,-546 50,-638 17,-72 27,-95 42,-101 12,-5 -27,-8 -91,-8 l -112,-1 30,77 c 32,84 41,179 52,542 5,161 3,150 -19,-140 -23,-302 -26,-317 -56,-395 -18,-44 -35,-83 -38,-86 -3,-4 -21,-10 -40,-14 l -34,-7 51,93 c 38,73 51,107 55,154 3,33 17,158 32,278 14,120 24,224 21,230 -2,7 -5,3 -5,-8 -1,-11 -17,-141 -35,-290 l -35,-270 -47,-90 c -52,-100 -54,-136 -9,-157 l 25,-11 v -294 c 0,-161 -3,-293 -7,-293 -5,-1 -67,-9 -140,-19 l -131,-18 -6,81 c -3,45 -12,477 -21,961 -8,484 -18,914 -21,955 -4,58 0,97 17,170 19,79 24,138 29,345 4,138 11,262 15,278 6,21 4,27 -8,27 -11,0 -17,-12 -20,-37 l -4,-38 -1,41 c -2,30 3,44 13,48 14,5 14,9 0,36 -26,50 -40,38 -38,-32 2,-58 1,-60 -7,-23 -5,22 -9,55 -9,73 -1,26 3,32 21,32 20,0 20,1 4,19 -9,10 -33,27 -53,37 -20,10 -45,27 -54,36 -17,16 -66,32 -169,57 -25,6 -76,20 -115,31 -70,21 -174,39 -191,33 z m 179,-52 c 26,-14 27,-17 27,-88 v -74 l -32,3 -33,3 -3,88 c -2,49 1,87 5,85 4,-2 20,-10 36,-17 z m 201,-64 c 3,-12 6,-48 6,-79 0,-55 -1,-58 -25,-58 -30,0 -33,5 -37,92 -3,55 -1,68 12,71 24,5 38,-3 44,-26 z m 114,-118 c 4,-107 -14,-96 -24,15 -6,65 -5,78 7,74 10,-3 15,-27 17,-89 z m 602,-2288 c 0,-13 -10,-20 -31,-25 -51,-10 -59,-8 -59,19 0,23 4,25 45,25 37,0 45,-3 45,-19 z m 0,-98 c 0,-50 -8,-50 -25,0 -13,41 -26,39 -44,-7 -12,-33 -12,-39 0,-47 8,-5 26,-6 42,-3 27,6 27,5 27,-45 0,-38 -6,-56 -24,-78 l -24,-28 -21,25 c -17,21 -20,39 -21,122 0,105 0,104 63,107 26,1 27,-1 27,-46 z m -920,-248 c 13,-14 21,-25 18,-25 -2,0 -15,11 -28,25 -13,14 -21,25 -18,25 2,0 15,-11 28,-25 z m 840,5 c 0,-5 -2,-10 -4,-10 -3,0 -8,5 -11,10 -3,6 -1,10 4,10 6,0 11,-4 11,-10 z m -874,-67 44,-37 v -211 c 0,-115 4,-215 8,-221 5,-8 22,-9 57,-3 28,4 56,8 63,8 9,1 12,-45 12,-199 0,-172 2,-201 16,-207 8,-3 64,0 125,7 60,7 111,11 114,9 3,-4 15,-311 15,-386 0,-22 1,-22 125,-16 l 125,6 2,-149 c 1,-82 3,-162 4,-179 1,-16 3,-36 3,-43 1,-10 23,-12 89,-10 l 87,3 -3,55 -3,56 54,17 c 36,11 87,17 156,17 h 102 l -2,-227 c 0,-126 -3,-243 -6,-260 l -5,-33 -107,-1 c -121,0 -224,-18 -207,-35 7,-7 28,-7 71,2 33,7 102,13 153,14 h 92 v -160 -160 l -135,1 c -136,0 -179,-7 -136,-23 15,-5 21,-13 17,-24 -3,-8 -2,-13 3,-10 15,9 198,19 225,12 l 26,-6 v -171 c 0,-126 -3,-168 -12,-163 -7,5 -8,3 -3,-6 5,-8 7,-109 6,-225 -3,-230 1,-262 31,-267 18,-3 18,-5 -6,-51 -20,-37 -26,-63 -26,-112 0,-76 6,-95 30,-95 15,0 17,-5 10,-33 -4,-18 -15,-45 -24,-60 -14,-21 -17,-46 -16,-129 1,-57 2,-155 2,-218 -1,-85 3,-121 14,-138 15,-23 7,-56 -18,-64 -8,-3 -5,-15 11,-41 18,-29 20,-40 11,-57 -6,-12 -11,-50 -11,-86 0,-37 -5,-64 -11,-64 -6,0 -8,-19 -4,-52 4,-29 9,-124 12,-211 4,-136 3,-162 -11,-184 -16,-23 -15,-25 4,-30 12,-3 19,-8 17,-12 -2,-3 -6,-66 -7,-140 l -3,-133 29,-16 29,-15 -22,-15 c -12,-8 -22,-21 -22,-28 0,-8 -10,-14 -24,-14 -13,0 -36,-10 -52,-22 -24,-20 -39,-22 -123,-22 -53,1 -72,-1 -43,-3 44,-3 52,-7 52,-24 0,-12 27,-49 62,-85 34,-35 59,-66 56,-69 -2,-3 -30,9 -61,26 -119,64 -167,56 -212,-34 -30,-60 -32,-80 -7,-73 9,2 45,8 78,11 72,8 69,12 80,-120 l 7,-81 -42,-48 c -22,-26 -41,-55 -41,-65 0,-24 76,-140 97,-148 10,-4 21,0 26,9 9,13 15,12 45,-8 19,-13 42,-24 52,-24 31,0 119,-30 136,-47 13,-13 15,-28 10,-75 -7,-60 4,-76 29,-42 10,14 13,14 26,-7 9,-13 26,-51 39,-84 25,-65 37,-85 51,-85 14,0 11,23 -31,205 -51,219 -51,261 -5,348 l 35,65 -25,56 c -48,108 -21,190 73,232 48,21 57,22 85,10 66,-28 109,-91 161,-234 14,-40 41,-103 60,-140 19,-37 37,-87 41,-111 4,-24 56,-140 119,-265 61,-122 122,-256 135,-297 113,-355 163,-484 185,-476 8,3 32,11 55,18 26,8 41,18 41,28 0,9 -11,72 -25,141 -13,69 -33,217 -45,329 -22,224 -51,380 -82,454 -25,57 -68,97 -151,138 -93,47 -117,67 -117,96 0,13 -14,59 -31,101 -61,150 -59,157 27,118 100,-46 109,-40 140,84 21,84 39,119 70,130 29,11 75,-5 127,-44 18,-14 51,-29 73,-34 l 39,-8 12,-69 c 7,-39 15,-84 18,-101 3,-18 19,-48 35,-68 37,-48 49,-102 116,-531 97,-628 110,-684 157,-693 14,-3 17,4 17,35 0,21 -7,60 -15,86 -8,26 -21,98 -30,160 -8,62 -25,160 -37,218 -12,58 -18,113 -15,123 6,15 8,16 32,0 13,-9 36,-40 50,-69 22,-44 28,-75 36,-186 23,-333 41,-400 155,-585 24,-39 44,-73 44,-75 0,-3 -26,-4 -57,-4 -74,0 -77,-18 -8,-63 116,-76 138,-93 128,-103 -6,-6 -41,5 -97,31 -95,45 -129,48 -134,12 -4,-24 21,-38 162,-94 33,-12 62,-29 64,-37 4,-12 -16,-13 -124,-8 -71,3 -144,9 -161,13 -26,5 -33,3 -33,-10 0,-25 40,-44 107,-52 35,-3 71,-12 80,-19 17,-12 16,-14 -7,-19 -14,-2 -54,-7 -90,-9 -44,-3 -87,-14 -134,-36 -68,-31 -86,-32 -86,-6 0,34 -79,127 -157,184 -45,33 -93,78 -107,99 -21,33 -31,40 -67,45 -31,4 -49,13 -62,32 -22,30 -67,55 -98,55 -12,0 -38,-12 -57,-26 -65,-50 -180,-81 -197,-53 -12,19 26,48 78,59 66,14 92,31 116,78 26,52 34,97 21,121 -8,17 -20,21 -59,21 -41,0 -51,4 -65,25 -15,24 -21,25 -92,23 -56,-2 -77,1 -84,12 -14,23 -5,27 72,34 117,12 170,51 218,159 26,58 21,77 -28,111 -43,29 -78,42 -144,51 -42,5 -48,9 -58,41 -6,19 -31,60 -55,92 -28,37 -53,87 -70,138 -41,130 -56,164 -70,164 -17,0 -25,-32 -25,-108 0,-76 -4,-84 -92,-189 -65,-78 -71,-83 -108,-83 -53,0 -112,-52 -134,-117 l -16,-46 35,-48 c 35,-47 83,-93 121,-115 19,-11 19,-12 -1,-34 -24,-28 -91,-59 -125,-60 -14,0 -42,-5 -63,-11 -34,-9 -38,-13 -33,-37 3,-15 7,-45 8,-67 2,-32 -1,-40 -15,-43 -23,-5 -55,24 -72,64 -12,29 -16,31 -81,37 -38,4 -88,7 -111,7 -38,0 -45,5 -99,66 -32,36 -70,72 -86,80 -23,12 -28,21 -28,54 0,61 16,83 101,139 84,54 133,111 144,164 4,18 27,62 52,99 70,103 55,107 -124,37 -113,-43 -193,-53 -193,-22 0,9 40,58 90,108 116,119 154,202 120,266 -15,27 -22,24 -74,-20 -57,-49 -85,-59 -102,-36 -18,24 -27,88 -19,135 6,34 16,47 68,87 78,58 117,94 117,106 0,15 -133,1 -215,-22 -114,-32 -119,-10 -33,136 45,77 50,90 41,114 -9,24 -7,31 12,49 l 23,21 6,-25 c 7,-27 40,-51 56,-41 15,9 12,58 -5,81 -8,12 -11,25 -7,29 4,4 -4,5 -18,3 -15,-2 -30,-13 -37,-29 -7,-14 -21,-33 -32,-43 -19,-18 -22,-18 -63,-1 -82,32 -83,42 -7,81 32,16 54,34 60,52 23,58 -18,232 -55,232 -16,0 -19,8 -36,91 -6,33 -19,64 -31,75 -20,18 -21,18 -42,-7 -12,-15 -34,-50 -50,-78 -16,-30 -38,-56 -52,-61 -13,-5 -36,-27 -51,-50 -34,-51 -30,-105 14,-207 18,-39 32,-78 32,-87 0,-9 -13,-30 -29,-48 -22,-25 -39,-33 -77,-37 -39,-5 -51,-11 -59,-29 -10,-23 -13,-23 -139,-21 -121,2 -131,1 -143,-18 -12,-18 -19,-19 -52,-11 -30,8 -45,6 -71,-7 -17,-9 -33,-15 -35,-13 -2,2 5,37 17,78 l 20,75 -21,200 c -11,110 -24,241 -27,290 -5,65 -12,97 -25,114 -18,22 -19,53 -19,574 v 550 l 35,38 35,39 v 140 140 l -27,11 c -38,15 -186,23 -158,9 18,-9 17,-10 -5,-5 -14,3 -52,7 -85,10 -52,4 -57,3 -32,-7 23,-10 27,-18 27,-50 0,-40 -10,-48 -29,-24 -6,7 -22,11 -37,8 -20,-4 -25,-10 -22,-31 3,-23 8,-26 46,-29 l 42,-3 v -80 c 0,-46 8,-113 19,-157 18,-70 20,-123 23,-595 l 3,-517 h -105 c -58,0 -111,4 -118,8 -9,6 -13,70 -17,243 -3,129 -8,253 -11,276 l -5,42 -80,31 c -52,20 -99,31 -134,31 l -54,1 -3,244 c -2,200 -1,244 11,244 10,0 11,7 5,28 -4,15 -8,41 -9,57 -4,61 -5,65 -24,65 -11,0 -22,-8 -24,-17 -3,-10 -5,31 -6,92 -1,85 2,106 11,97 7,-7 20,-12 30,-12 13,0 18,-8 18,-25 0,-20 5,-25 25,-25 21,0 25,5 25,30 0,30 0,30 59,30 h 58 l 7,-40 c 6,-38 8,-40 41,-40 31,0 35,3 35,25 0,19 -5,25 -21,25 -19,0 -21,5 -17,40 l 4,40 -51,1 c -37,0 -45,3 -30,9 11,5 32,9 48,9 23,1 27,5 27,30 0,17 5,33 10,36 12,8 13,324 1,377 -5,20 -5,40 -1,45 4,4 4,17 0,28 -6,17 -7,17 -14,-8 -3,-15 -11,-27 -17,-27 -6,0 -6,6 0,19 11,19 -8,73 -30,87 -12,7 -89,-73 -89,-93 0,-17 8,-17 27,3 13,13 17,13 24,2 13,-20 11,-28 -6,-22 -8,4 -22,1 -30,-6 -13,-10 -15,-45 -13,-209 l 3,-196 2,183 c 2,110 7,182 13,182 11,0 14,-263 4,-382 -7,-73 -7,-74 -33,-71 -14,2 -48,-3 -76,-10 l -50,-13 -3,-147 c -2,-144 -2,-148 23,-181 l 25,-33 v -236 -237 l -37,-1 h -38 l 40,-19 c 22,-11 70,-33 108,-50 l 67,-31 v -50 -49 l -40,20 c -43,22 -51,45 -23,66 10,7 16,14 13,17 -3,2 -54,25 -113,50 -78,33 -116,45 -136,41 -52,-11 -54,14 -48,819 3,397 9,733 12,747 5,19 -2,36 -29,72 l -36,47 v 140 140 l 113,3 112,3 3,30 c 2,27 1,28 -11,13 -12,-15 -31,-18 -126,-18 -61,0 -111,3 -111,8 0,4 9,18 19,32 18,23 27,25 125,28 l 106,4 v 153 153 l 31,6 c 17,3 62,6 99,6 85,0 100,6 100,38 0,22 -2,24 -12,10 -10,-12 -40,-18 -120,-23 -60,-3 -108,-3 -108,2 0,4 8,18 18,31 16,21 29,24 122,30 l 105,7 3,151 3,151 67,7 c 37,3 88,6 115,6 46,0 47,1 47,32 0,27 -2,30 -12,16 -10,-12 -40,-18 -126,-23 l -114,-7 16,30 c 15,29 15,30 131,37 l 115,7 v 158 159 l 53,6 c 28,3 81,9 117,13 63,7 65,8 68,36 3,24 1,28 -10,19 -11,-10 -172,-33 -228,-33 -18,0 -19,3 -9,23 6,12 13,24 15,26 2,2 54,9 116,15 l 113,11 2,155 1,155 61,9 61,10 v 43 c 0,24 5,43 10,43 6,0 10,64 10,171 v 171 l 48,53 c 26,30 51,54 55,54 5,1 28,-16 53,-36 z m 99,7 c 10,-11 16,-20 13,-20 -3,0 -13,9 -23,20 -10,11 -16,20 -13,20 3,0 13,-9 23,-20 z m 850,-49 c -6,-5 -27,-12 -47,-15 -45,-8 -50,6 -17,49 l 22,27 26,-26 c 16,-16 22,-29 16,-35 z m -42,-38 c -7,-2 -19,-2 -25,0 -7,3 -2,5 12,5 14,0 19,-2 13,-5 z m 47,-142 v -128 l -37,-7 c -21,-3 -50,-6 -65,-6 h -28 v 129 130 l 33,4 c 17,2 47,5 65,5 l 32,2 z m 316,-321 c 15,0 82,7 150,17 68,9 125,14 127,12 1,-2 0,-71 -3,-153 -4,-118 -2,-150 8,-154 15,-5 197,5 250,15 l 33,5 -2,-168 -1,-169 123,2 c 68,2 134,5 147,8 l 22,5 v -183 c 0,-133 -3,-186 -12,-195 -10,-10 -14,-100 -16,-365 l -3,-352 -33,70 -32,70 -155,-6 c -85,-4 -157,-4 -160,0 -4,3 -15,28 -25,55 l -18,49 -78,-6 c -43,-4 -85,-4 -93,-1 -13,5 -15,41 -15,234 v 227 l 45,18 c 26,9 45,20 43,25 -2,4 -55,55 -118,113 l -116,105 -54,226 c -30,124 -56,224 -57,222 -2,-2 13,-103 33,-225 l 37,-221 74,-79 c 40,-44 73,-82 73,-85 0,-16 -35,13 -96,81 l -68,76 -37,240 c -21,131 -40,242 -43,245 -4,3 -6,-139 -6,-315 v -321 l -112,-1 c -127,-2 -124,-13 -30,96 l 54,62 34,198 c 18,109 33,205 33,213 -1,17 -37,-155 -64,-304 l -18,-99 -75,-86 c -79,-91 -83,-95 -122,-106 -18,-5 2,21 72,91 l 97,99 20,88 c 30,125 25,131 -8,10 -25,-94 -57,-153 -82,-153 -5,0 -26,24 -48,53 -34,45 -49,55 -108,76 -37,13 -72,30 -76,38 -4,7 -23,13 -41,13 -32,0 -153,37 -195,59 -19,11 -21,20 -21,121 0,91 3,110 15,110 19,0 19,2 -7,61 -21,49 -22,50 -57,45 -20,-3 -57,-8 -83,-12 l -48,-6 v 35 c 0,41 1,41 140,55 67,7 75,9 72,27 -2,11 -6,97 -9,191 l -5,170 83,13 c 46,6 99,14 117,18 l 32,5 v -335 c 0,-219 4,-338 10,-342 6,-4 23,-4 39,0 l 29,6 -6,84 c -5,94 -8,91 83,97 l 40,3 3,-57 c 2,-32 -2,-66 -7,-77 -17,-32 -5,-47 34,-43 l 35,4 v 348 348 l 83,11 c 45,6 96,12 112,13 l 30,3 3,-182 2,-183 z m 1242,-451 -3,-122 109,6 109,7 -5,-49 c -5,-49 -5,-49 34,-67 l 38,-17 v -215 c 0,-203 -1,-214 -17,-201 -32,25 -243,222 -240,225 1,1 40,5 86,9 47,3 88,8 93,11 4,3 8,48 8,100 v 95 l -57,-6 c -32,-3 -69,-7 -82,-8 -20,-2 -41,21 -127,138 -79,107 -103,148 -104,172 0,35 8,39 108,42 l 53,1 z m 282,-124 c 26,-14 30,-21 30,-60 0,-49 -6,-53 -50,-30 -26,14 -30,21 -30,60 0,49 6,53 50,30 z M 6817,7683 c -2,-16 -4,-3 -4,27 0,30 2,43 4,28 2,-16 2,-40 0,-55 z M 9700,6616 v -104 l -30,11 -30,11 v 88 87 l 28,4 c 15,2 28,5 30,6 1,0 2,-46 2,-103 z M 3236,6130 h 64 v -68 c 0,-40 5,-73 12,-80 7,-7 36,-12 66,-12 h 55 l -5,-74 c -6,-86 3,-96 78,-96 h 45 l -2,-63 c -1,-35 1,-69 5,-75 4,-7 31,-12 62,-12 h 54 v -73 c 0,-43 5,-78 12,-85 7,-7 36,-12 66,-12 h 54 l -3,-72 c -2,-40 0,-79 4,-85 5,-8 31,-13 68,-13 52,0 59,-2 59,-20 0,-16 -7,-20 -34,-20 -22,0 -36,-6 -40,-16 -8,-22 1,-34 27,-34 37,0 48,-40 26,-90 -17,-38 -19,-70 -19,-294 0,-149 -8,-365 -20,-531 -11,-154 -20,-296 -20,-317 0,-35 -1,-36 -42,-43 -24,-4 -98,-17 -165,-31 -67,-13 -129,-24 -138,-24 -13,0 -15,67 -13,608 l 3,607 158,3 c 90,1 157,7 157,12 0,5 -67,11 -157,12 l -158,3 -2,234 c -2,230 -2,235 -24,252 -17,12 -30,14 -51,8 -16,-4 -36,-5 -44,-2 -16,6 -20,-27 -4,-43 11,-11 2,-54 -11,-54 -4,0 -9,21 -11,48 -3,43 -5,47 -28,47 -20,0 -26,-6 -28,-27 -2,-16 -7,-28 -12,-28 -5,0 -10,12 -12,28 -2,22 -9,28 -38,33 l -35,6 33,2 32,1 v 79 c 0,64 -4,83 -20,102 l -20,24 -20,-25 c -17,-21 -20,-37 -18,-108 3,-72 1,-82 -14,-82 -11,0 -18,-8 -18,-19 0,-10 -7,-24 -15,-31 -15,-13 -17,-10 -19,25 -1,15 -9,21 -34,23 -31,3 -36,9 -73,89 -21,47 -39,87 -39,89 0,2 14,4 30,4 h 30 v 80 80 h 58 57 l -3,86 c -3,77 -2,86 13,80 9,-3 46,-6 81,-6 z m 1374,-472 v -41 l -20,26 c -12,15 -20,40 -20,64 l 1,38 19,-24 c 13,-14 20,-38 20,-63 z m 2658,-51 c 3,-40 1,-42 -29,-27 -22,12 -25,40 -7,58 20,20 33,8 36,-31 z m 89,-34 c -2,-16 -4,-5 -4,22 0,28 2,40 4,28 2,-13 2,-35 0,-50 z m -3887,-5 c 0,-10 -4,-18 -10,-18 -5,0 -10,10 -10,23 0,13 -6,29 -12,37 -7,8 -3,6 10,-4 12,-11 22,-27 22,-38 z m -46,-2 c 2,-15 0,-29 -4,-31 -4,-3 -10,13 -12,35 -2,22 0,36 5,31 5,-5 10,-20 11,-35 z m -324,-21 c 0,-20 5,-25 25,-25 20,0 25,5 25,25 0,23 3,25 50,25 46,0 50,-2 50,-24 0,-17 7,-25 25,-28 22,-5 25,-2 26,26 1,30 1,30 9,6 4,-14 8,-48 9,-77 l 1,-52 -122,-3 c -86,-2 -123,-7 -126,-15 -3,-10 26,-13 122,-13 h 126 v -135 -135 h -135 -135 v 138 c 0,102 4,143 14,158 8,11 16,31 18,44 2,18 13,28 38,37 l 35,12 -30,1 c -18,0 -44,13 -65,30 l -35,29 38,1 c 33,0 37,-3 37,-25 z m 3993,8 c -13,-2 -33,-2 -45,0 -13,2 -3,4 22,4 25,0 35,-2 23,-4 z m -2389,-49 c 12,-5 16,-20 16,-64 0,-44 4,-61 20,-75 15,-13 20,-31 20,-67 v -48 h -71 -71 l 7,36 c 4,25 1,49 -12,80 -17,42 -20,44 -60,44 -50,0 -57,-8 -37,-45 8,-16 14,-45 12,-65 l -3,-35 h -50 -50 l -3,38 c -3,30 -7,37 -25,38 -12,0 -17,2 -12,5 6,2 9,35 7,79 l -4,74 119,4 c 65,1 132,4 150,5 17,1 38,-1 47,-4 z m -3515,-40 c 3,-16 1,-17 -13,-5 -19,16 -21,34 -3,29 6,-3 14,-13 16,-24 z m 61,6 c -6,-11 -13,-20 -15,-20 -3,0 -5,9 -5,20 0,11 7,20 15,20 13,0 14,-4 5,-20 z m -72,-30 22,-29 -31,-35 c -27,-31 -37,-36 -75,-36 -48,0 -66,19 -47,49 11,18 91,81 101,80 4,0 17,-13 30,-29 z m 153,-4 c 39,-29 46,-39 42,-60 -5,-24 -10,-26 -53,-26 -43,0 -52,4 -73,32 l -25,31 21,29 c 11,15 26,28 31,28 6,0 32,-16 57,-34 z m 1337,18 252,-7 v -169 -168 l -122,-1 c -68,-1 -134,-2 -148,-1 -14,0 -114,0 -224,1 -171,1 -197,3 -187,15 9,11 11,63 9,182 l -3,167 85,-7 c 47,-3 199,-9 338,-12 z m 1552,-94 v -110 h -35 -35 v 49 c 0,26 -3,76 -6,110 l -7,61 h 42 41 z m 96,100 h 54 v -60 c 0,-43 -4,-60 -13,-60 -7,0 -32,-16 -54,-35 -67,-57 -73,-51 -73,66 0,88 2,100 16,95 9,-3 40,-6 70,-6 z m -3076,-85 c 23,-24 23,-25 3,-25 -11,0 -35,-3 -54,-7 l -33,-6 23,31 c 27,38 31,39 61,7 z m 283,-144 c 9,-27 17,-51 17,-55 0,-3 -34,-6 -75,-6 h -75 v 112 112 l 58,-57 c 38,-38 63,-73 75,-106 z m -496,-58 c -3,-2 -37,-7 -76,-10 -51,-4 -71,-3 -71,6 0,32 37,92 88,144 l 57,58 3,-97 c 1,-53 1,-98 -1,-101 z m 5593,129 c 0,-4 -9,7 -20,23 -11,17 -20,35 -20,40 0,6 9,-5 20,-23 11,-18 20,-36 20,-40 z m -2054,-13 c 5,-9 13,-1 26,26 15,35 18,37 18,15 0,-34 -26,-70 -51,-70 -16,0 -19,7 -18,48 1,40 2,43 9,20 4,-14 11,-32 16,-39 z m 17,41 c -3,-11 -7,-20 -9,-20 -2,0 -4,9 -4,20 0,11 4,20 9,20 5,0 7,-9 4,-20 z m -3443,-35 c 0,-33 -4,-38 -42,-54 -49,-21 -58,-15 -58,40 0,45 4,49 57,49 43,0 43,0 43,-35 z m 118,3 c -2,-18 -6,-32 -10,-30 -5,1 -26,2 -48,2 -38,0 -40,2 -40,30 0,29 1,30 51,30 h 50 z m 112,-23 v -54 l -42,19 c -38,16 -43,23 -46,54 l -3,36 h 45 46 z m 285,-153 90,-93 -64,3 -63,3 -34,84 c -18,46 -36,93 -40,105 -5,18 -4,19 8,6 8,-8 54,-57 103,-108 z m -817,-1 -40,-99 -59,-4 c -32,-1 -59,-1 -59,2 0,4 192,200 197,200 1,0 -17,-45 -39,-99 z m 3363,79 c 16,0 20,-6 17,-27 -3,-25 -7,-28 -45,-31 -40,-3 -56,9 -33,23 6,3 10,15 10,27 0,14 5,18 16,14 9,-3 25,-6 35,-6 z m 107,-27 c -3,-25 -8,-28 -44,-31 -40,-3 -41,-3 -36,28 4,28 7,30 44,30 37,0 39,-2 36,-27 z m -2753,-22 c 3,-6 -10,-47 -28,-93 l -33,-83 -52,-3 -52,-3 v 95 96 h 79 c 44,0 82,-4 86,-9 z m -525,-90 v -89 l -51,-4 c -28,-1 -54,2 -58,7 -17,23 -62,149 -57,161 4,10 27,14 86,14 h 80 z m 570,-20 c 11,-29 19,-55 18,-56 -2,-1 -27,-5 -57,-9 -49,-6 -53,-5 -46,11 4,10 16,42 28,71 11,29 24,49 28,45 4,-4 17,-32 29,-62 z m 2620,7 c 0,-102 -4,-108 -63,-108 -48,0 -49,1 -34,18 12,13 17,37 17,85 v 67 h 40 40 z m 61,54 c 14,-6 14,-15 1,-84 -13,-73 -15,-78 -39,-78 -21,0 -24,4 -19,23 3,12 6,50 6,85 0,65 7,73 51,54 z M 878,5042 c 31,-81 30,-82 -32,-82 h -54 l 27,70 c 14,38 28,70 31,70 3,0 15,-26 28,-58 z m 1910,38 h 132 v -649 c 0,-630 -1,-650 -19,-656 -11,-3 -44,-10 -75,-15 -98,-17 -385,-70 -528,-98 l -48,-9 v 720 720 l 203,-6 c 111,-4 262,-7 335,-7 z m 532,-609 v -619 l -97,-17 c -54,-9 -115,-20 -135,-25 -20,-4 -38,-6 -40,-5 -2,2 -2,292 0,644 l 2,641 h 135 135 z m -1552,431 3,-113 -27,3 c -24,3 -32,14 -71,108 -23,58 -43,109 -43,113 0,4 30,7 68,5 l 67,-3 z m -997,51 c -73,-184 -72,-183 -97,-183 -24,0 -24,0 -24,115 v 115 h 70 70 z m 342,20 c -13,-2 -33,-2 -45,0 -13,2 -3,4 22,4 25,0 35,-2 23,-4 z m 120,0 c -13,-2 -33,-2 -45,0 -13,2 -3,4 22,4 25,0 35,-2 23,-4 z m 120,0 c -13,-2 -33,-2 -45,0 -13,2 -3,4 22,4 25,0 35,-2 23,-4 z m 15,-100 -3,-88 -162,-3 -163,-2 v 84 85 l 68,4 c 37,2 111,4 165,5 l 98,2 z m 102,37 c -41,-105 -49,-120 -64,-120 -13,0 -16,15 -16,85 v 85 h 50 50 z m 134,13 c -9,-21 -25,-59 -36,-85 l -21,-48 h -54 c -48,0 -54,2 -49,18 4,9 19,47 33,85 l 26,67 h 59 58 z m -659,-50 c 17,-42 31,-80 33,-85 2,-4 -21,-8 -52,-8 h -56 l -29,65 c -50,110 -51,105 16,105 h 58 z m 85,-8 c 0,-75 -2,-85 -18,-85 -12,0 -26,21 -47,77 -17,42 -31,80 -33,85 -2,4 19,8 47,8 h 51 z m 635,15 c 15,-36 29,-71 32,-77 4,-10 -13,-13 -65,-13 h -71 l 26,58 c 14,31 29,68 34,81 12,29 11,30 44,-49 z m -841,-28 c 15,-34 24,-67 21,-72 -6,-10 -125,-15 -125,-5 0,2 9,28 21,57 12,29 25,64 30,77 12,30 18,23 53,-57 z m 3436,44 c 0,-6 -3,-20 -6,-32 -11,-41 -104,-12 -104,33 0,8 17,12 55,12 34,-1 55,-5 55,-13 z m 2519,-127 81,-31 v -41 c 0,-39 -1,-40 -17,-24 -15,14 -16,21 -5,37 11,17 10,21 -5,27 -97,37 -156,62 -146,62 6,1 48,-13 92,-30 z m -426,-15 c 39,-20 77,-44 84,-53 7,-9 13,-37 13,-64 v -47 l -40,20 c -30,16 -40,26 -40,45 0,18 5,25 20,25 42,0 17,28 -55,61 -41,19 -74,37 -75,42 0,14 20,7 93,-29 z m -4723,-5 c 0,-14 -7,-19 -27,-19 -16,0 -45,-3 -65,-6 -36,-6 -38,-5 -38,19 0,25 3,26 58,29 68,4 72,2 72,-23 z m 140,6 c 0,-24 -2,-25 -65,-25 -63,0 -65,1 -65,25 0,24 2,25 65,25 63,0 65,-1 65,-25 z m -710,-9 c 0,-21 -6,-24 -55,-31 -61,-7 -75,-3 -75,25 0,20 20,26 93,29 33,1 37,-2 37,-23 z m 140,-1 c 0,-24 -2,-25 -65,-25 -56,0 -65,2 -65,18 0,28 8,32 72,32 55,0 58,-1 58,-25 z m 140,0 c 0,-24 -3,-25 -60,-25 -57,0 -60,1 -60,25 0,24 3,25 60,25 57,0 60,-1 60,-25 z m 145,3 c -1,-21 -7,-23 -63,-26 -61,-3 -62,-2 -62,23 0,24 2,25 63,25 60,0 64,-1 62,-22 z m -705,-13 c 0,-24 -2,-25 -65,-25 -63,0 -65,1 -65,25 0,24 2,25 65,25 63,0 65,-1 65,-25 z m 140,0 c 0,-24 -2,-25 -65,-25 -63,0 -65,1 -65,25 0,24 2,25 65,25 63,0 65,-1 65,-25 z m 3304,-48 c -9,-67 -24,-58 -24,15 0,56 2,61 15,47 11,-11 14,-27 9,-62 z m 2060,-1 c 16,-25 22,-66 9,-66 -4,0 -24,12 -45,26 -31,22 -38,33 -38,61 v 34 l 29,-15 c 15,-8 35,-26 45,-40 z m -4866,-38 -3,-63 -33,-3 c -30,-3 -34,0 -57,50 -35,76 -34,78 35,78 h 61 z m 112,3 v -59 l -46,-4 c -25,-2 -47,-1 -50,1 -2,2 -4,31 -4,63 v 58 h 50 50 z m 176,42 c -3,-10 -10,-37 -16,-60 l -11,-43 h -69 -70 v 60 60 h 86 c 77,0 85,-2 80,-17 z m 54,-43 v -60 h -30 c -34,0 -34,0 -18,69 9,38 16,51 30,51 15,0 18,-9 18,-60 z m -900,-15 v -66 l -62,3 -62,3 -13,50 c -7,28 -13,53 -13,57 0,9 34,15 98,17 l 52,1 z m 120,5 c 0,-52 -2,-60 -19,-60 -10,0 -33,-3 -50,-6 l -31,-6 v 66 66 h 50 50 z m 112,0 c -26,-57 -28,-59 -64,-60 h -38 v 60 60 h 64 65 z m 214,5 c 13,-31 24,-58 24,-60 0,-3 -56,-5 -125,-5 -69,0 -125,2 -125,5 0,2 12,29 27,60 l 27,55 h 74 73 z m -599,-10 c 17,-67 17,-65 -17,-65 h -30 v 61 c 0,51 3,60 17,57 11,-2 21,-21 30,-53 z m 823,-145 v -80 h -50 -50 v 80 80 h 50 50 z m 139,63 c 0,-10 -8,-45 -17,-78 l -17,-60 h -45 -45 l -3,78 -3,77 h 66 c 56,0 65,-3 64,-17 z m 91,-58 v -75 h -54 -54 l 8,33 c 5,17 14,51 20,75 10,39 13,42 45,42 h 35 z M 742,4485 c 10,-38 18,-73 18,-77 0,-5 -22,-8 -50,-8 h -50 v 73 c 0,41 3,77 7,81 4,4 18,6 32,4 22,-3 27,-12 43,-73 z m 118,-6 v -80 l -42,3 -41,3 -18,75 c -10,41 -18,76 -19,78 0,1 27,2 60,2 h 60 z m 120,7 c 0,-80 -4,-86 -72,-86 h -28 v 80 80 h 50 50 z m 550,-151 v -65 h -50 -50 v 65 65 h 50 50 z m 96,38 c -25,-104 -26,-104 -54,-101 -26,3 -27,6 -30,66 l -3,62 h 47 c 45,0 46,0 40,-27 z m 134,-32 v -58 l -67,-6 c -38,-3 -70,-4 -72,-2 -3,4 18,104 26,118 2,4 29,7 59,7 h 54 z m 3055,49 c 3,-5 1,-10 -4,-10 -6,0 -11,5 -11,10 0,6 2,10 4,10 3,0 8,-4 11,-10 z M 777,4335 c 7,-27 13,-53 13,-57 0,-5 -29,-8 -65,-8 h -65 v 54 c 0,60 6,65 69,63 33,-2 36,-5 48,-52 z m 83,-5 c 0,-57 -1,-60 -25,-60 -20,0 -26,7 -35,43 -6,23 -13,50 -16,60 -5,14 1,17 35,17 h 41 z m 120,0 v -60 h -50 -50 v 60 60 h 50 50 z m 3327,-60 c 1,-11 -2,-18 -8,-15 -11,7 -12,35 -1,35 4,0 8,-9 9,-20 z m -2887,-80 v -70 H 1205 990 v 64 65 l 48,4 c 26,2 122,4 215,5 l 167,2 z m 110,0 v -70 h -50 -50 v 70 70 h 50 50 z m 51,3 c -23,-92 -41,-94 -41,-4 v 71 h 29 29 z m 179,-3 v -70 h -90 c -49,0 -90,2 -90,5 0,3 7,35 16,70 l 16,65 h 74 74 z m 2148,-210 c 9,1 56,9 105,19 48,10 87,15 87,11 0,-6 -198,-50 -227,-50 -9,0 -11,13 -8,43 3,23 8,92 12,152 l 8,110 3,-142 c 2,-128 4,-143 20,-143 z M 809,4203 c 7,-27 14,-56 17,-65 5,-16 -3,-18 -80,-18 h -86 v 65 65 h 69 69 z m 51,-18 c 0,-36 -4,-65 -8,-65 -5,0 -15,29 -24,65 l -15,65 h 23 c 23,0 24,-3 24,-65 z m 120,0 v -65 h -50 -50 v 65 65 h 50 50 z m 3897,3 c -3,-7 -5,-2 -5,12 0,14 2,19 5,13 2,-7 2,-19 0,-25 z M 910,4070 c 0,-19 -7,-20 -120,-20 -113,0 -120,1 -120,20 0,19 7,20 120,20 113,0 120,-1 120,-20 z m 140,0 c 0,-18 -7,-20 -60,-20 -53,0 -60,2 -60,20 0,18 7,20 60,20 53,0 60,-2 60,-20 z m 146,3 c -2,-15 -15,-19 -64,-21 -57,-3 -62,-1 -62,18 0,18 6,20 64,20 55,0 64,-2 62,-17 z m 144,-3 c 0,-18 -7,-20 -65,-20 -58,0 -65,2 -65,20 0,18 7,20 65,20 58,0 65,-2 65,-20 z m 280,0 c 0,-19 -7,-20 -135,-20 -128,0 -135,1 -135,20 0,19 7,20 135,20 128,0 135,-1 135,-20 z m 130,0 c 0,-17 -7,-20 -45,-20 -38,0 -45,3 -45,20 0,17 7,20 45,20 38,0 45,-3 45,-20 z m 2808,-42 c -3,-24 -37,-37 -140,-52 -46,-7 -48,-6 -48,18 0,21 6,26 38,32 20,3 53,10 72,14 66,15 82,12 78,-12 z M 729,3946 c 11,-41 24,-82 27,-90 5,-13 -2,-16 -40,-16 h -46 v 90 c 0,81 2,90 18,90 15,0 24,-17 41,-74 z m 251,-16 v -91 l -102,3 -101,3 -14,40 c -7,22 -20,61 -28,88 l -14,47 h 130 129 z m 70,0 v -90 h -30 -30 v 90 90 h 30 30 z m 222,83 c -40,-2 -103,-2 -140,0 -37,2 -4,3 73,3 77,0 107,-2 67,-3 z m 205,-77 c -19,-79 -23,-85 -50,-90 -77,-16 -77,-16 -77,84 v 90 h 74 73 z m 90,66 c -9,-9 -20,-29 -26,-42 -9,-23 -10,-21 -10,18 -1,39 1,42 26,42 24,0 25,-1 10,-18 z m 183,-24 v -42 l -20,39 c -11,22 -20,41 -20,42 0,2 9,3 20,3 17,0 20,-7 20,-42 z m 2553,2 c -10,-17 -27,-33 -38,-35 -77,-15 -88,-14 -112,5 -18,14 -21,21 -12,24 11,4 141,30 172,35 5,0 0,-13 -10,-29 z m -2793,-65 c 0,-59 -2,-65 -21,-65 -15,0 -19,5 -15,18 3,9 10,38 17,65 6,26 13,47 15,47 2,0 4,-29 4,-65 z m 3050,-45 c 0,-96 4,-90 -62,-104 l -28,-6 v 94 94 l 38,9 c 20,6 40,8 45,6 4,-2 7,-44 7,-93 z m -466,74 c 3,-8 10,-13 15,-9 5,3 12,1 15,-4 7,-11 -101,-38 -111,-28 -10,10 38,57 58,57 9,0 20,-7 23,-16 z m -123,-32 c -26,-37 -103,-52 -133,-25 -10,9 -16,19 -12,22 6,7 157,39 163,35 2,-2 -6,-16 -18,-32 z m 449,21 c -1,-5 -12,-21 -25,-38 l -25,-30 v 32 c 0,17 6,34 13,36 19,8 37,8 37,0 z m -80,-61 c 0,-27 -3,-52 -7,-55 -8,-8 -63,42 -63,57 0,17 32,46 52,46 15,0 18,-8 18,-48 z m -90,34 c 0,-3 -4,-8 -10,-11 -5,-3 -10,-1 -10,4 0,6 5,11 10,11 6,0 10,-2 10,-4 z m -513,-43 c -3,-10 -5,-4 -5,12 0,17 2,24 5,18 2,-7 2,-21 0,-30 z m 73,6 c 0,-4 -9,-9 -20,-12 -16,-4 -20,0 -20,19 0,22 2,23 20,12 11,-7 20,-16 20,-19 z m 626,-106 c -4,-9 -16,-13 -33,-11 -42,5 -43,46 -1,104 l 33,46 3,-62 c 2,-35 1,-69 -2,-77 z m -736,102 c 0,-26 -8,-29 -134,-53 -65,-13 -76,-10 -76,18 0,15 12,21 58,30 31,7 73,16 92,20 55,13 60,11 60,-15 z m 478,-20 c 3,-30 -4,-48 -34,-91 -20,-30 -39,-54 -41,-54 -3,0 -18,9 -34,21 -34,24 -33,25 36,112 25,32 52,56 58,54 7,-2 13,-21 15,-42 z m -109,-10 c -50,-69 -54,-71 -94,-44 -19,13 -35,27 -35,30 0,23 54,43 153,58 5,0 -6,-19 -24,-44 z m -2622,-17 c -3,-7 -13,-48 -23,-90 -17,-74 -20,-78 -46,-78 h -28 v 90 90 h 51 c 36,0 49,-4 46,-12 z m 63,-84 v -97 l -41,6 c -22,3 -42,7 -44,9 -2,2 6,42 18,91 19,78 23,87 44,87 22,0 23,-3 23,-96 z m 2327,19 c -2,-16 -4,-3 -4,27 0,30 2,43 4,28 2,-16 2,-40 0,-55 z m -3046,-5 c 11,-40 23,-76 26,-80 2,-5 -30,-8 -71,-8 h -76 v 80 80 h 50 49 z m 189,-14 v -86 l -72,4 -71,3 -24,69 c -12,39 -23,76 -23,83 0,10 24,13 95,13 h 95 z m 70,1 v -85 h -30 -30 v 85 85 h 30 30 z m 2268,58 c -3,-27 -6,-28 -130,-52 -71,-13 -130,-22 -132,-20 -2,2 -6,13 -8,24 -3,18 9,23 127,46 72,15 134,27 138,28 5,1 7,-11 5,-26 z m 480,-35 c -2,-38 -8,-63 -15,-66 -10,-3 -13,14 -13,62 0,53 3,66 15,66 13,0 15,-11 13,-62 z m 85,37 c -7,-21 -13,-19 -13,6 0,11 4,18 10,14 5,-3 7,-12 3,-20 z m 390,-2 c 25,-27 25,-29 9,-49 -9,-12 -29,-24 -44,-28 -27,-6 -28,-5 -28,33 0,76 19,89 63,44 z m -536,-5 c -3,-8 -6,-5 -6,6 -1,11 2,17 5,13 3,-3 4,-12 1,-19 z m -39,-5 c -2,-14 -15,-19 -58,-21 -30,-2 -57,-7 -60,-12 -3,-5 -23,-10 -45,-12 -30,-2 -40,1 -40,11 0,11 25,20 85,32 115,22 122,23 118,2 z m 261,-30 32,-28 -34,-37 c -23,-25 -43,-38 -61,-38 -24,0 -26,4 -26,39 0,35 30,91 49,91 4,0 21,-12 40,-27 z m 706,-16 60,-13 -47,-12 c -37,-9 -64,-9 -125,0 l -78,12 50,12 c 64,16 69,16 140,1 z m -1747,-18 c -4,-29 -17,-34 -123,-53 -163,-29 -165,-29 -165,-2 0,23 7,25 128,49 162,32 164,32 160,6 z m 819,-16 c -3,-10 -5,-4 -5,12 0,17 2,24 5,18 2,-7 2,-21 0,-30 z m 434,4 c -16,-16 -26,0 -10,19 9,11 15,12 17,4 2,-6 -1,-17 -7,-23 z m -851,4 c 0,-14 -10,-20 -37,-24 -21,-3 -53,-9 -70,-12 -29,-7 -33,-5 -33,12 0,16 10,22 58,30 83,15 82,15 82,-6 z m 378,-8 c -3,-30 -25,-42 -34,-19 -9,22 2,46 21,46 12,0 15,-8 13,-27 z m -118,-22 c 0,-24 -5,-29 -31,-35 -51,-10 -59,-8 -59,19 0,19 7,26 28,31 15,3 32,7 37,9 22,7 25,4 25,-24 z m 441,-5 c -27,-12 -38,-1 -21,19 10,12 16,13 27,3 13,-11 12,-14 -6,-22 z m -939,-28 c -12,-12 -42,-4 -42,12 0,6 10,14 23,19 16,6 23,5 25,-6 2,-8 -1,-20 -6,-25 z m -492,8 c 0,-27 -2,-28 -100,-46 -36,-6 -85,-15 -110,-20 -25,-5 -64,-12 -87,-15 -41,-6 -43,-6 -43,19 0,20 6,26 33,31 17,3 88,17 157,30 158,29 150,29 150,1 z m 730,-24 c 0,-26 -4,-29 -58,-40 -79,-16 -82,-16 -82,13 0,17 7,26 23,30 47,11 102,23 110,24 4,1 7,-12 7,-27 z m -402,1 c -2,-13 -24,-22 -78,-35 -98,-22 -110,-22 -110,1 0,16 11,22 53,30 28,5 61,12 72,14 47,11 67,7 63,-10 z M 833,3620 c 5,-20 2,-21 -76,-18 -69,3 -82,6 -85,21 -3,15 6,17 76,17 72,0 80,-2 85,-20 z m 147,0 c 0,-18 -7,-20 -64,-20 -55,0 -64,3 -69,20 -5,19 0,20 64,20 62,0 69,-2 69,-20 z m 70,0 c 0,-16 -7,-20 -30,-20 -23,0 -30,4 -30,20 0,16 7,20 30,20 23,0 30,-4 30,-20 z m 193,10 c 90,0 97,-1 97,-20 0,-19 -7,-20 -104,-20 -133,0 -166,6 -166,33 0,17 5,19 38,13 20,-3 81,-6 135,-6 z m 2452,0 c 3,-6 -1,-13 -10,-16 -19,-8 -30,0 -20,15 8,14 22,14 30,1 z m -2302,-20 c -3,-11 -14,-20 -24,-20 -12,0 -19,7 -19,20 0,14 7,20 24,20 19,0 23,-4 19,-20 z m 117,0 c 0,-17 -7,-20 -50,-20 -43,0 -50,3 -50,20 0,17 7,20 50,20 43,0 50,-3 50,-20 z m 2070,-4 c 0,-16 -83,-38 -89,-23 -5,12 4,18 41,27 48,11 48,11 48,-4 z m -1370,-20 c 0,-29 5,-28 -185,-61 -82,-14 -160,-28 -173,-31 -21,-4 -23,-1 -20,23 3,27 4,27 173,59 215,40 205,39 205,10 z m 490,10 c 0,-18 -13,-27 -51,-33 -36,-5 -41,23 -6,37 33,13 57,12 57,-4 z m 390,-11 c 0,-24 -3,-27 -32,-29 -12,-1 -20,32 -12,46 3,4 14,8 25,8 14,0 19,-7 19,-25 z m -500,-14 c 0,-20 -8,-24 -67,-36 -21,-4 -33,-3 -33,4 0,6 -22,11 -52,12 -63,1 -54,6 43,23 103,19 109,19 109,-3 z m 328,-27 c -3,-18 -51,-35 -142,-48 -44,-7 -46,-6 -46,18 0,28 -3,26 110,50 68,14 84,10 78,-20 z m 405,12 c 4,-11 -11,-17 -64,-27 -63,-11 -92,-9 -76,7 5,5 90,27 128,33 4,1 9,-5 12,-13 z m -1523,-45 c 0,-26 -4,-29 -42,-34 -47,-7 -244,-42 -295,-53 -30,-6 -33,-4 -33,19 0,31 -2,30 165,57 109,18 192,33 203,39 1,0 2,-12 2,-28 z m 510,4 c 0,-14 -3,-25 -7,-25 -5,0 -18,-3 -30,-6 -19,-5 -23,-2 -23,19 0,26 11,35 43,36 12,1 17,-7 17,-24 z m 390,-5 c 0,-21 -27,-40 -59,-40 -31,0 -29,47 2,53 47,9 57,7 57,-13 z m -490,-13 c 0,-22 -8,-25 -132,-50 -73,-14 -137,-22 -141,-18 -5,5 -7,17 -5,27 3,15 25,22 123,40 157,29 155,29 155,1 z m 878,11 c -6,-18 -68,-29 -68,-12 0,13 19,21 53,23 11,0 17,-4 15,-11 z m -498,-23 c 0,-19 -7,-26 -37,-34 -58,-16 -65,-14 -61,16 2,22 10,29 33,34 57,12 65,10 65,-16 z m 1795,-4 c 3,-11 17,-37 32,-58 l 25,-38 -5,-255 c -3,-140 -11,-280 -17,-310 -11,-57 -14,-182 -5,-285 2,-33 2,-52 -1,-42 -3,9 -9,17 -12,17 -18,0 -257,-99 -259,-107 -2,-5 28,-49 67,-98 91,-112 102,-130 98,-152 -3,-16 -22,-19 -169,-29 -157,-11 -217,-24 -204,-44 3,-5 46,-32 96,-60 50,-28 124,-76 165,-106 l 74,-55 v -78 c 0,-52 -4,-82 -13,-89 -7,-6 -66,-22 -132,-36 -65,-14 -123,-30 -129,-36 -16,-17 14,-35 108,-66 116,-39 182,-69 194,-90 13,-23 6,-37 -59,-117 -82,-102 -59,-115 66,-37 114,71 128,67 93,-28 -18,-52 -20,-64 -8,-91 16,-39 122,-139 210,-197 74,-50 203,-106 224,-98 7,3 19,-2 26,-11 22,-26 -1,-38 -62,-31 -151,18 -160,18 -204,1 -76,-29 -77,-68 -4,-105 22,-11 40,-23 40,-27 0,-12 -127,5 -158,21 -17,9 -59,41 -93,71 -34,30 -65,55 -70,55 -5,0 -22,26 -38,58 -48,96 -109,141 -264,197 -87,31 -102,49 -92,104 10,55 40,95 92,124 58,31 98,71 90,90 -3,8 -27,18 -54,22 -65,9 -165,58 -213,103 -36,35 -38,40 -33,82 8,64 20,73 95,70 112,-6 136,-4 152,9 22,18 20,47 -8,106 -32,70 -67,108 -131,144 -31,17 -69,50 -86,74 -46,63 -89,153 -89,186 0,46 62,92 255,188 166,82 175,88 175,115 0,19 -10,38 -27,54 l -26,24 22,24 c 29,31 20,46 -29,46 -34,0 -39,3 -42,27 -2,14 -14,35 -28,45 -24,17 -29,18 -60,4 -31,-13 -37,-13 -53,2 -18,16 -20,15 -37,-6 -22,-26 -26,-22 -40,44 -21,99 -81,237 -116,270 -19,17 -34,35 -34,40 0,6 13,25 29,44 24,29 31,33 44,22 34,-29 66,-126 87,-266 6,-38 15,-75 21,-83 7,-7 32,-13 58,-13 25,0 64,-5 86,-11 71,-19 95,-22 95,-11 0,14 -51,29 -124,37 -89,10 -86,6 -86,101 0,100 -23,169 -81,246 -42,57 -45,65 -26,89 11,15 133,47 142,37 6,-6 34,-209 45,-323 6,-64 13,-92 25,-101 17,-13 163,-29 204,-23 29,5 36,-16 47,-123 4,-38 10,-70 14,-73 16,-10 32,150 25,255 -4,61 -3,110 2,113 5,3 18,-18 28,-46 l 20,-52 6,175 c 4,96 7,223 8,283 1,86 4,107 15,107 8,0 17,-9 21,-19 z m -1472,-11 c -11,-11 -174,-42 -181,-36 -11,11 9,19 90,36 80,16 109,16 91,0 z m -1011,-31 c -5,-29 -1,-26 -37,-31 -26,-3 -30,0 -30,22 0,17 7,26 25,31 36,10 45,5 42,-22 z m 2318,-120 c 0,-146 -20,-321 -42,-362 -7,-15 -5,-20 11,-24 19,-5 36,-31 27,-41 -3,-2 -49,-1 -103,4 l -98,9 3,30 c 1,17 -3,63 -9,103 -11,69 -11,74 10,95 27,29 27,30 -8,69 -25,29 -29,43 -35,124 l -7,92 63,11 c 34,6 64,8 67,6 2,-3 -1,-16 -9,-29 -10,-19 -10,-38 -1,-87 8,-46 8,-96 0,-179 -13,-143 -10,-205 11,-205 12,0 15,16 15,80 0,44 5,102 9,128 6,33 5,71 -4,118 -9,49 -11,86 -4,127 8,53 11,58 44,69 62,21 60,26 60,-138 z m -2820,122 c 0,-11 -3,-22 -8,-25 -6,-4 -359,-66 -376,-66 -6,0 -9,49 -3,51 54,11 340,58 360,58 20,1 27,-4 27,-18 z m 908,-36 c -2,-1 -15,-5 -30,-9 -26,-6 -28,-4 -28,23 0,25 4,30 28,33 22,2 28,-1 30,-20 2,-13 2,-25 0,-27 z m -508,17 c 0,-27 -2,-28 -92,-45 -183,-33 -178,-33 -178,-3 0,18 6,27 23,31 27,7 217,42 235,44 7,0 12,-11 12,-27 z m 410,-11 v -28 l -132,-26 c -73,-14 -137,-22 -141,-17 -5,4 -7,16 -5,26 3,15 27,24 138,46 74,14 136,27 138,27 1,1 2,-12 2,-28 z m 480,19 c 0,-5 -9,-10 -19,-10 -11,0 -26,-3 -35,-6 -9,-3 -16,-1 -16,4 0,9 20,17 58,21 6,0 12,-3 12,-9 z m 5120,-12 c 0,-12 21,-69 47,-126 45,-101 46,-105 27,-119 -38,-28 -66,-27 -121,2 -30,15 -55,26 -57,24 -21,-24 -39,-84 -40,-129 0,-62 18,-103 64,-146 44,-41 83,-109 75,-133 -7,-24 -109,-121 -128,-121 -7,0 -46,11 -85,25 -76,26 -122,32 -122,14 0,-5 23,-45 50,-89 28,-43 61,-110 74,-148 16,-51 37,-87 79,-136 53,-62 67,-86 51,-86 -7,0 -37,25 -151,125 -59,52 -77,60 -112,55 -13,-1 -13,1 -2,14 12,14 7,24 -38,71 -45,48 -51,59 -51,98 0,58 16,103 52,150 42,54 58,99 58,165 v 58 l 65,49 c 60,46 65,52 76,105 17,84 29,98 91,102 l 53,3 3,73 c 2,56 0,74 -12,78 -12,5 -12,8 2,24 24,26 52,25 52,-2 z m -5220,-7 c 0,-9 -47,-21 -83,-21 -27,0 -10,17 23,23 44,8 60,7 60,-2 z m -1092,-67 c -3,-2 -19,-7 -36,-10 -30,-6 -32,-5 -32,24 0,27 4,31 33,34 27,3 32,-1 35,-20 2,-13 2,-26 0,-28 z m -518,21 c 0,-14 -4,-25 -10,-25 -5,0 -88,-13 -185,-30 -215,-37 -215,-37 -215,-6 0,22 6,24 178,53 229,40 232,40 232,8 z m 418,-12 c -3,-27 -8,-29 -88,-45 -47,-10 -111,-20 -142,-24 -57,-7 -58,-6 -58,19 0,22 6,27 33,32 53,10 241,43 250,44 5,1 7,-11 5,-26 z m 500,-27 c -2,-2 -18,-6 -36,-9 -32,-6 -33,-5 -30,21 2,21 9,28 33,32 26,5 30,2 33,-18 2,-13 2,-25 0,-26 z m -98,6 c 0,-27 -2,-28 -77,-41 -43,-7 -94,-17 -113,-22 -61,-16 -80,-12 -80,15 0,22 6,26 53,35 69,14 200,39 210,40 4,1 7,-12 7,-27 z m 485,18 c -27,-12 -35,-12 -35,0 0,6 12,10 28,9 24,0 25,-1 7,-9 z m -75,-8 c 0,-9 -224,-53 -257,-51 -10,1 41,14 112,29 156,34 145,32 145,22 z m -1132,-49 c -2,-23 -8,-29 -35,-31 -29,-3 -33,0 -33,22 0,26 11,34 48,35 20,1 23,-3 20,-26 z m -98,-12 c 0,-28 -3,-30 -47,-37 -27,-4 -93,-15 -148,-24 -55,-10 -103,-16 -107,-13 -13,7 -9,43 5,49 8,3 74,15 148,28 74,13 137,24 142,25 4,0 7,-12 7,-28 z m 520,-5 c 0,-16 -7,-26 -22,-30 -39,-10 -48,-7 -48,18 0,26 11,34 48,35 17,1 22,-5 22,-23 z m -102,-22 c -4,-21 -20,-26 -159,-48 -126,-21 -129,-21 -129,8 0,22 6,25 73,36 39,7 101,18 137,24 69,13 84,9 78,-20 z m 497,26 c -3,-5 -21,-9 -38,-9 l -32,1 30,8 c 43,11 47,11 40,0 z m -97,-16 c -3,-3 -62,-15 -132,-28 -69,-12 -123,-20 -120,-17 3,3 56,16 117,27 126,24 143,26 135,18 z M 640,3226 c 0,-24 -16,-36 -51,-36 -25,0 -27,47 -1,53 41,11 52,7 52,-17 z m 2923,-26 c -18,-26 -36,-40 -50,-40 -29,0 -29,4 3,46 17,22 35,34 51,34 h 24 z m -2483,5 c 0,-14 -6,-25 -12,-25 -7,0 -23,-3 -35,-6 -19,-5 -23,-2 -23,19 0,27 11,35 48,36 17,1 22,-5 22,-24 z m 2394,13 c -22,-40 -34,-46 -76,-36 -58,13 -66,6 -24,-22 20,-14 36,-28 36,-32 0,-3 -18,-21 -40,-38 l -40,-31 -28,30 c -15,17 -35,44 -45,60 l -17,30 52,10 c 57,12 181,38 186,40 2,1 0,-5 -4,-11 z m 206,2 c 0,-13 -51,-90 -59,-89 -3,0 -14,4 -24,8 -16,6 -15,10 13,49 28,39 70,58 70,32 z M 973,3170 c -8,-8 -251,-50 -285,-50 -21,0 -25,38 -5,45 6,3 75,15 152,28 136,22 140,22 143,4 2,-11 0,-23 -5,-27 z m 517,36 c 0,-2 -13,-6 -30,-8 -16,-3 -30,-1 -30,4 0,4 14,8 30,8 17,0 30,-2 30,-4 z m -105,-15 c -6,-5 -57,-16 -115,-26 -58,-9 -118,-19 -135,-22 -16,-3 -27,-3 -23,2 4,4 67,17 140,30 73,13 135,24 138,24 2,1 0,-3 -5,-8 z m 5661,-36 c 9,-14 27,-28 40,-31 24,-6 34,-24 13,-24 -7,0 -8,-18 -4,-55 7,-50 5,-58 -24,-102 -29,-43 -71,-156 -71,-189 0,-8 -14,-61 -30,-117 -21,-68 -34,-141 -40,-222 -6,-66 -17,-140 -25,-165 -13,-42 -14,-32 -14,156 -1,110 2,322 6,470 l 6,270 46,16 c 64,22 78,22 97,-7 z M 640,3111 c 0,-51 -9,-61 -51,-61 -16,0 -19,7 -19,49 0,51 5,57 53,60 14,1 17,-8 17,-48 z m 439,25 c -10,-8 -73,-16 -64,-7 6,5 21,11 35,13 25,4 37,1 29,-6 z m -99,-14 c 0,-11 -300,-60 -306,-50 -3,4 -2,8 3,8 4,1 69,11 143,24 162,28 160,28 160,18 z m 1459,-53 c 11,-38 14,-40 46,-37 31,3 43,-7 164,-126 72,-70 131,-136 131,-145 0,-9 -7,-26 -15,-37 -24,-32 -18,-54 20,-70 34,-14 35,-15 35,-72 -1,-60 -11,-309 -30,-727 l -12,-250 -28,-25 -29,-25 -7,-220 -6,-220 39,-51 c 91,-121 168,-202 180,-192 10,8 13,6 13,-6 0,-19 -38,-36 -83,-36 -22,0 -45,11 -70,31 l -38,32 26,27 c 17,18 23,30 16,35 -6,3 -26,30 -45,59 -27,43 -41,54 -77,65 -46,13 -261,122 -255,129 2,2 31,-6 64,-17 84,-27 168,-37 187,-21 12,10 15,46 15,199 1,211 8,266 39,287 19,14 21,24 21,132 1,74 8,158 21,227 27,144 34,225 21,225 -6,0 -45,-38 -88,-85 -42,-47 -95,-100 -117,-117 l -39,-31 37,72 c 21,43 35,84 33,99 -3,26 -6,27 -70,30 -70,3 -88,15 -42,26 14,4 38,15 53,25 14,9 58,38 97,64 66,44 106,89 91,104 -4,3 -42,-21 -84,-54 -108,-83 -123,-90 -140,-67 -7,10 -13,27 -13,38 -2,83 -29,316 -38,333 -17,32 -15,98 4,114 21,17 44,64 44,89 0,25 -40,42 -78,34 -23,-5 -25,-4 -9,6 17,11 13,15 -35,47 -75,49 -85,68 -43,79 16,4 25,13 25,25 0,16 26,36 51,38 3,1 11,-17 18,-40 z m 703,31 c -40,-5 -84,-16 -98,-25 -18,-11 -25,-13 -22,-4 7,20 68,38 133,37 l 60,-1 z m 348,3 c 0,-5 -7,-16 -15,-27 -16,-21 -35,-13 -35,15 0,14 7,19 25,19 14,0 25,-3 25,-7 z m -660,-114 v -111 l -95,88 c -52,48 -92,90 -89,93 4,5 139,35 177,40 4,1 7,-49 7,-110 z m 720,70 c 0,-6 -4,-7 -10,-4 -5,3 -10,11 -10,16 0,6 5,7 10,4 6,-3 10,-11 10,-16 z M 2242,2925 c 4,-277 5,-269 -14,-273 -16,-3 -17,4 -12,85 4,54 2,104 -5,128 -15,54 -3,205 15,205 11,0 14,-31 16,-145 z m -252,73 c 0,-13 5,-77 10,-143 5,-66 14,-235 20,-375 13,-298 22,-376 54,-446 28,-61 92,-158 150,-227 39,-47 40,-49 21,-63 -10,-8 -22,-14 -25,-14 -21,0 -134,86 -187,143 l -63,65 v 70 c 0,38 -5,94 -10,123 -6,30 -17,130 -26,223 -8,93 -19,198 -24,235 -5,36 -10,113 -10,170 0,57 -5,133 -11,168 -10,58 -13,63 -38,64 -14,1 0,7 34,14 92,20 105,19 105,-7 z m 1027,-130 c -2,-29 -3,-6 -3,52 0,58 1,81 3,53 2,-29 2,-77 0,-105 z m 682,111 c 6,10 13,-4 21,-42 8,-39 17,-58 30,-62 10,-3 22,-18 28,-33 5,-15 18,-49 28,-77 12,-35 35,-66 78,-107 65,-62 66,-71 6,-37 -49,28 -75,20 -65,-19 3,-15 13,-34 21,-44 14,-15 12,-17 -18,-23 -98,-21 -216,-104 -389,-270 l -66,-64 -6,222 -6,222 61,93 62,93 21,-59 c 25,-69 72,-152 86,-152 5,0 3,14 -5,33 -36,84 -44,106 -56,163 l -12,61 33,52 c 30,45 37,51 61,47 28,-5 47,7 28,19 -5,3 -10,11 -10,17 0,7 14,-1 30,-17 25,-24 33,-27 39,-16 z m -167,9 c -7,-7 -12,-8 -12,-2 0,6 3,14 7,17 3,4 9,5 12,2 2,-3 -1,-11 -7,-17 z m -153,-17 c 11,-7 10,-13 -4,-35 -10,-14 -19,-26 -21,-26 -2,0 -4,16 -4,35 0,36 5,41 29,26 z m -1702,-18 c 0,-10 13,-67 27,-128 20,-82 31,-163 41,-315 15,-240 23,-268 120,-440 71,-125 82,-160 65,-204 -28,-75 119,-261 356,-448 38,-31 96,-72 127,-92 31,-20 57,-41 57,-47 0,-23 -33,-18 -126,19 -54,21 -120,46 -146,56 -73,27 -191,162 -308,351 -35,55 -59,91 -55,80 4,-11 14,-58 22,-104 16,-93 63,-197 114,-256 21,-24 70,-54 143,-90 79,-38 127,-69 166,-107 60,-58 159,-111 278,-149 45,-14 88,-36 110,-56 l 37,-32 -32,-1 c -63,0 -269,33 -321,52 -30,11 -82,39 -115,62 -34,23 -123,81 -197,128 -74,48 -150,102 -167,120 -40,42 -82,151 -75,196 4,28 -1,40 -31,70 -27,29 -36,48 -41,87 -17,148 -54,274 -89,303 -18,15 -12,104 10,149 14,29 14,34 -7,76 -21,41 -21,46 -6,69 12,19 13,31 6,60 -9,29 -20,41 -70,67 -55,30 -60,35 -60,66 0,36 31,181 50,229 9,26 8,32 -15,56 -17,18 -25,37 -25,61 0,35 -26,70 -60,81 -8,3 32,14 90,25 134,26 126,26 127,6 z m 1782,-29 c 7,-25 1,-39 -44,-107 l -53,-78 -4,42 c -3,37 2,51 42,110 25,37 46,66 48,64 1,-1 6,-15 11,-31 z M 649,2853 c 0,-32 -2,-34 -9,-17 -5,12 -13,25 -19,29 -18,10 -12,25 9,25 17,0 20,-6 19,-37 z m 2358,-750 c -1,-93 -3,-17 -3,167 0,184 2,260 3,168 2,-93 2,-243 0,-335 z m 4196,318 c 4,-4 -19,-15 -52,-24 -50,-14 -67,-25 -111,-74 -28,-32 -73,-86 -98,-121 -40,-52 -48,-59 -50,-41 -6,35 100,209 140,230 73,39 147,52 171,30 z m 342,-116 c 88,-51 120,-77 141,-118 17,-32 4,-67 -24,-67 -9,0 -37,-14 -62,-30 -55,-37 -60,-37 -91,-4 -43,47 -104,67 -204,68 -53,1 -102,-4 -119,-12 l -29,-13 7,-134 7,-134 -33,-10 c -18,-5 -107,-32 -198,-59 -91,-27 -181,-52 -200,-55 l -35,-7 25,20 c 14,11 89,63 167,117 95,64 139,100 130,105 -76,48 -324,-107 -340,-213 -4,-22 -10,-25 -63,-29 -32,-3 -65,-9 -71,-13 -27,-17 -11,17 53,114 47,72 123,132 219,174 48,22 55,28 55,54 0,26 8,32 83,69 45,23 134,69 197,104 104,56 252,116 290,118 9,0 51,-20 95,-45 z M 2997,1678 c -2,-35 -3,-9 -3,57 0,66 1,94 3,63 2,-32 2,-86 0,-120 z m 620,-312 c 46,-38 101,-93 124,-122 38,-49 64,-70 199,-156 41,-26 65,-51 90,-94 22,-37 61,-80 107,-118 l 72,-60 -21,-36 C 4085,608 4049,575 3966,576 c -63,1 -104,21 -144,71 l -31,38 -57,-57 c -63,-62 -65,-76 -12,-108 38,-23 92,-40 262,-81 187,-45 180,-40 207,-156 13,-54 23,-129 24,-168 V 45 l -69,2 c -41,2 -83,10 -105,20 l -36,18 v 85 c 0,139 -22,157 -243,199 -62,12 -167,40 -235,62 -118,39 -125,40 -213,34 -100,-7 -116,-1 -90,37 9,12 16,33 16,45 0,18 -5,23 -27,23 -16,-1 -39,-7 -53,-15 -35,-20 -63,-18 -93,5 -14,11 -34,20 -46,20 -27,0 -61,-38 -61,-69 0,-36 -15,-55 -35,-47 -13,5 -16,14 -12,35 7,31 -13,58 -33,46 -6,-4 -22,-4 -35,-1 -18,5 -24,12 -22,29 2,24 23,20 -252,57 -176,24 -195,20 -137,-32 21,-18 42,-41 47,-50 16,-30 -26,-22 -63,11 -18,16 -56,38 -85,51 -52,22 -102,65 -90,77 4,3 31,0 61,-7 73,-17 93,-7 29,14 -29,10 -106,21 -170,26 -121,8 -218,35 -244,66 -22,26 7,34 129,34 110,0 113,0 124,-25 14,-31 25,-31 56,-2 l 24,22 35,-40 c 31,-36 36,-38 47,-23 11,15 23,16 107,8 52,-5 132,-17 179,-25 87,-16 469,-49 477,-41 3,2 -22,9 -54,15 -116,23 -122,30 -18,25 78,-5 121,-1 195,15 52,11 118,23 145,27 53,7 85,20 97,38 11,16 10,146 -2,146 -13,0 -18,42 -30,255 -6,105 -13,201 -16,215 l -4,25 -143,-6 c -78,-4 -177,-7 -219,-8 -67,-1 -78,-4 -79,-18 0,-12 -2,-14 -6,-5 -6,17 18,66 26,53 4,-5 81,-6 199,0 107,5 197,7 201,4 5,-2 6,19 3,48 l -5,52 74,-70 c 41,-39 111,-101 156,-139 z m -660,-73 c -3,-10 -5,-2 -5,17 0,19 2,27 5,18 2,-10 2,-26 0,-35 z m -10,-245 c -2,-13 -4,-5 -4,17 -1,22 1,32 4,23 2,-10 2,-28 0,-40 z m 2323,-99 c 77,-43 90,-58 71,-88 -13,-21 -47,-4 -135,68 -39,32 -93,72 -119,89 l -48,30 26,20 26,20 49,-47 c 28,-27 86,-68 130,-92 z"
         inkscape:connector-curvature="0"
         style="fill:#3e687f" />
      <path
         id="svg_5"
         d="m 7508,8142 c -10,-2 -18,-8 -18,-13 0,-6 -4,-8 -9,-5 -15,10 -43,-5 -37,-20 3,-8 0,-11 -10,-7 -17,6 -18,-8 -1,-27 10,-12 9,-12 -6,-1 -23,18 -34,7 -16,-16 12,-16 12,-17 -2,-6 -25,20 -32,1 -7,-20 l 23,-18 -23,11 c -30,15 -42,4 -16,-15 18,-13 18,-14 -3,-8 -14,3 -23,1 -23,-6 0,-6 6,-11 13,-11 9,0 9,-2 0,-8 -6,-4 -13,-16 -15,-27 -2,-17 3,-21 33,-23 35,-3 37,-1 44,34 10,55 62,104 112,104 59,0 101,-31 115,-85 12,-43 14,-45 50,-45 21,0 38,5 38,10 0,6 -6,10 -12,10 -10,0 -9,3 1,9 9,6 10,11 3,15 -6,4 -9,12 -7,19 3,7 0,19 -5,27 -8,13 -13,13 -32,2 l -23,-13 22,19 c 25,22 19,39 -6,19 -14,-11 -14,-10 -2,6 18,23 7,34 -16,16 -15,-11 -16,-11 -5,1 16,19 15,33 -2,27 -10,-4 -13,-1 -10,7 6,15 -22,30 -37,20 -5,-3 -9,-1 -9,4 0,14 -38,22 -44,8 -3,-7 -5,-7 -5,2 -1,19 -21,14 -22,-5 0,-15 -2,-15 -7,-3 -4,9 -15,14 -24,12 z"
         inkscape:connector-curvature="0"
         style="fill:#3e687f" />
      <path
         id="svg_6"
         d="m 8667,7402 c -21,-22 -38,-49 -38,-62 -9,-232 -9,-341 1,-335 6,4 10,60 10,148 0,78 4,147 8,154 4,6 6,-57 5,-140 -1,-84 0,-146 3,-139 4,7 25,12 55,12 27,0 49,5 49,10 0,6 -20,10 -45,10 h -45 v 125 c 0,105 2,125 15,125 11,0 14,7 9,25 -8,33 13,60 33,44 8,-7 11,-21 8,-33 -5,-17 -4,-18 4,-6 17,23 13,65 -7,83 -10,10 -21,17 -23,17 -3,0 -22,-17 -42,-38 z m 2,-54 c 11,-15 10,-17 -7,-15 -13,1 -18,7 -14,19 2,11 5,17 6,16 1,-2 7,-11 15,-20 z"
         inkscape:connector-curvature="0"
         style="fill:#3e687f" />
      <path
         id="svg_7"
         d="m 8536,7388 c -12,-29 -16,-71 -16,-189 0,-84 2,-150 5,-148 2,3 5,73 6,156 0,109 4,156 14,170 11,15 13,-8 9,-147 -3,-91 -6,-175 -8,-187 -2,-17 2,-23 15,-23 16,0 17,14 18,173 0,124 -3,180 -13,202 l -14,30 z"
         inkscape:connector-curvature="0"
         style="fill:#3e687f" />
      <path
         id="svg_8"
         d="m 7514,7331 c -49,-75 -57,-120 -62,-354 -2,-119 0,-225 5,-235 5,-10 10,62 14,183 l 6,200 -2,-247 c -1,-137 0,-248 2,-248 2,0 12,9 23,20 15,15 33,20 75,20 30,0 55,5 55,10 0,6 -27,10 -60,10 h -60 v 225 225 h 60 59 l -3,53 c -2,28 -11,68 -20,87 -30,64 -47,90 -56,90 -6,0 -21,-18 -36,-39 z m 49,-46 c -23,-16 -49,-88 -38,-105 3,-6 1,-10 -4,-10 -17,0 -13,41 9,88 12,26 26,42 37,42 15,0 14,-2 -4,-15 z"
         inkscape:connector-curvature="0"
         style="fill:#3e687f" />
      <path
         id="svg_9"
         d="m 8750,7220 c 0,-57 2,-101 5,-99 7,8 8,189 1,196 -3,4 -6,-40 -6,-97 z"
         inkscape:connector-curvature="0"
         style="fill:#3e687f" />
      <path
         id="svg_10"
         d="m 7711,7254 c -42,-53 -53,-117 -56,-322 -1,-106 2,-195 6,-198 5,-3 9,-26 9,-52 1,-40 2,-45 13,-30 8,10 35,20 65,24 62,8 59,24 -4,24 h -44 v 180 179 l 50,7 c 50,7 69,23 28,25 h -23 l 23,10 c 22,8 23,13 17,52 -4,23 -16,54 -26,69 -11,14 -19,31 -19,36 0,23 -20,21 -39,-4 z m 39,-38 c 0,-2 -8,-10 -17,-17 -16,-13 -17,-12 -4,4 13,16 21,21 21,13 z m -43,-118 c -3,-8 -6,-5 -6,6 -1,11 2,17 5,13 3,-3 4,-12 1,-19 z m -30,-235 c -1,-43 -3,-10 -3,72 0,83 2,118 3,78 2,-40 2,-107 0,-150 z"
         inkscape:connector-curvature="0"
         style="fill:#3e687f" />
      <path
         id="svg_11"
         d="m 7342,7225 c -39,-61 -52,-144 -52,-337 0,-98 4,-178 9,-178 5,0 6,-20 3,-45 -4,-43 9,-63 21,-31 3,8 27,17 56,21 63,9 67,25 6,25 h -45 v 179 179 l 51,7 52,7 -6,59 c -3,34 -13,70 -24,86 -11,15 -23,36 -26,46 -9,25 -19,21 -45,-18 z"
         inkscape:connector-curvature="0"
         style="fill:#3e687f" />
      <path
         id="svg_12"
         d="m 8490,6869 c 0,-5 5,-7 10,-4 6,3 10,8 10,11 0,2 -4,4 -10,4 -5,0 -10,-5 -10,-11 z"
         inkscape:connector-curvature="0"
         style="fill:#3e687f" />
      <path
         id="svg_13"
         d="m 8106,6258 c -43,-50 -49,-77 -11,-52 14,9 25,14 25,11 0,-3 3,-13 7,-22 5,-14 2,-16 -13,-11 -45,14 -49,-2 -51,-200 -2,-102 1,-191 5,-198 4,-6 10,70 13,169 6,173 6,171 4,-53 l -2,-233 66,5 c 86,6 88,8 16,16 l -60,6 53,8 c 48,8 52,10 52,37 0,15 4,30 8,33 5,3 7,92 4,198 -3,165 -6,195 -21,208 -9,8 -15,23 -13,33 2,10 0,26 -4,35 -4,9 -7,20 -6,24 1,4 -7,12 -17,18 -16,8 -25,3 -55,-32 z"
         inkscape:connector-curvature="0"
         style="fill:#3e687f" />
      <path
         id="svg_14"
         d="m 8290,6260 c -22,-24 -40,-49 -40,-57 0,-17 8,-17 27,3 13,13 17,13 24,2 13,-20 11,-28 -6,-22 -8,4 -22,1 -30,-6 -13,-10 -15,-45 -13,-209 l 3,-196 2,183 c 3,126 7,182 15,182 8,0 9,-65 6,-236 l -6,-235 59,4 c 76,5 88,17 18,18 -39,0 -49,3 -34,9 11,5 32,9 48,9 23,1 27,5 27,30 0,17 5,33 10,36 11,7 12,268 1,357 -4,32 -4,61 0,65 4,5 3,17 -1,28 -6,17 -7,17 -14,-8 -3,-15 -11,-27 -17,-27 -6,0 -6,7 1,21 9,16 8,24 -4,38 -9,10 -14,20 -11,23 3,3 -1,11 -10,18 -13,11 -21,6 -55,-30 z"
         inkscape:connector-curvature="0"
         style="fill:#3e687f" />
      <path
         id="svg_15"
         d="m 7420,6250 c -46,-50 -55,-80 -16,-55 21,14 24,14 30,0 9,-25 8,-28 -10,-21 -40,15 -44,-7 -42,-213 l 3,-196 2,183 c 2,110 7,182 13,182 14,0 13,-346 -1,-371 -6,-12 -8,-37 -4,-60 6,-37 8,-39 43,-38 21,1 51,5 67,9 26,7 22,8 -25,10 l -55,2 48,10 c 43,9 47,13 47,38 0,16 5,32 10,35 12,7 13,96 3,277 -5,109 -9,128 -24,133 -11,4 -15,12 -12,25 3,11 2,28 -3,37 -4,10 -8,21 -8,25 -1,4 -7,13 -13,19 -10,10 -21,4 -53,-31 z"
         inkscape:connector-curvature="0"
         style="fill:#3e687f" />
      <path
         id="svg_16"
         d="m 7616,6269 c -24,-19 -40,-79 -17,-65 5,3 12,-1 15,-10 9,-22 8,-24 -9,-18 -8,4 -22,1 -30,-6 -13,-10 -15,-45 -13,-209 l 3,-196 2,183 c 3,126 7,182 15,182 8,0 9,-65 6,-235 l -5,-235 36,1 c 20,1 50,5 66,9 26,7 22,8 -25,10 l -55,2 48,10 c 43,9 47,13 47,38 0,16 5,32 10,35 12,8 13,325 1,378 -5,20 -5,39 -1,42 5,3 5,15 2,28 l -6,22 -6,-24 c -3,-14 -11,-26 -19,-29 -10,-3 -10,0 0,16 11,18 10,24 -4,40 -9,10 -15,21 -12,24 3,3 -1,10 -8,17 -11,9 -20,6 -41,-10 z"
         inkscape:connector-curvature="0"
         style="fill:#3e687f" />
      <path
         id="svg_17"
         d="m 6948,6257 c -13,-13 -31,-35 -40,-48 -28,-37 -21,-54 9,-23 13,13 17,13 24,2 13,-20 11,-28 -6,-22 -8,4 -22,1 -30,-6 -12,-10 -15,-47 -15,-208 0,-245 18,-250 23,-7 3,129 3,118 2,-46 0,-165 -4,-221 -14,-233 -24,-28 3,-46 70,-46 33,0 59,4 59,9 0,5 3,16 6,25 5,13 -3,16 -47,17 -40,0 -49,3 -34,9 11,5 34,9 51,9 30,1 31,3 38,54 9,80 7,390 -4,407 -5,9 -5,19 1,27 7,8 7,18 0,30 -10,17 -10,16 -11,-4 0,-12 -5,-25 -11,-29 -7,-4 -9,0 -5,14 7,21 -14,75 -34,87 -5,3 -20,-5 -32,-18 z"
         inkscape:connector-curvature="0"
         style="fill:#3e687f" />
      <path
         id="svg_18"
         d="m 8735,6260 c 10,-11 20,-20 23,-20 3,0 -3,9 -13,20 -10,11 -20,20 -23,20 -3,0 3,-9 13,-20 z"
         inkscape:connector-curvature="0"
         style="fill:#3e687f" />
      <path
         id="svg_19"
         d="m 8200,6215 c 0,-15 4,-24 10,-20 6,3 10,12 10,20 0,8 -4,17 -10,20 -6,4 -10,-5 -10,-20 z"
         inkscape:connector-curvature="0"
         style="fill:#3e687f" />
      <path
         id="svg_20"
         d="m 7514,6204 c -1,-13 2,-24 7,-24 11,0 12,37 2,43 -5,3 -9,-6 -9,-19 z"
         inkscape:connector-curvature="0"
         style="fill:#3e687f" />
      <path
         id="svg_21"
         d="m 7567,6206 c -4,-10 -5,-21 -2,-24 9,-9 17,6 13,25 -3,17 -4,17 -11,-1 z"
         inkscape:connector-curvature="0"
         style="fill:#3e687f" />
      <path
         id="svg_22"
         d="m 6645,5530 c 3,-5 17,-10 31,-10 13,0 24,5 24,10 0,6 -14,10 -31,10 -17,0 -28,-4 -24,-10 z"
         inkscape:connector-curvature="0"
         style="fill:#3e687f" />
      <path
         id="svg_23"
         d="m 6810,5450 c -22,-22 -26,-70 -9,-119 9,-26 16,-31 44,-31 30,0 33,3 44,46 13,49 8,78 -17,107 -20,22 -37,22 -62,-3 z"
         inkscape:connector-curvature="0"
         style="fill:#3e687f" />
      <path
         id="svg_24"
         d="m 6974,5449 c -14,-16 -19,-34 -17,-75 2,-68 6,-74 48,-74 31,0 35,4 44,38 16,54 14,76 -10,106 -25,32 -40,33 -65,5 z"
         inkscape:connector-curvature="0"
         style="fill:#3e687f" />
      <path
         id="svg_25"
         d="m 6682,5438 c -16,-16 -15,-58 3,-102 13,-30 20,-36 46,-36 h 31 l -6,58 c -4,31 -9,65 -12,75 -6,20 -44,23 -62,5 z"
         inkscape:connector-curvature="0"
         style="fill:#3e687f" />
      <path
         id="svg_26"
         d="m 7888,5213 c 6,-2 18,-2 25,0 6,3 1,5 -13,5 -14,0 -19,-2 -12,-5 z"
         inkscape:connector-curvature="0"
         style="fill:#3e687f" />
      <path
         id="svg_27"
         d="m 7830,5161 c -130,-40 -190,-137 -190,-307 0,-84 2,-95 16,-90 9,3 18,6 20,6 2,0 4,30 4,68 0,128 35,214 108,264 39,27 58,33 114,36 81,5 128,-9 182,-55 31,-27 29,-24 -7,11 -68,64 -167,91 -247,67 z"
         inkscape:connector-curvature="0"
         style="fill:#3e687f" />
      <path
         id="svg_28"
         d="m 7689,5133 -24,-28 28,24 c 15,14 27,26 27,28 0,8 -8,1 -31,-24 z"
         inkscape:connector-curvature="0"
         style="fill:#3e687f" />
      <path
         id="svg_29"
         d="m 7864,5106 c -3,-8 -4,-23 -2,-34 2,-16 7,-14 25,14 22,33 22,34 2,34 -11,0 -22,-6 -25,-14 z"
         inkscape:connector-curvature="0"
         style="fill:#3e687f" />
      <path
         id="svg_30"
         d="m 7969,5103 c 34,-59 61,-69 44,-16 -6,18 -18,29 -32,31 -19,3 -21,1 -12,-15 z"
         inkscape:connector-curvature="0"
         style="fill:#3e687f" />
      <path
         id="svg_31"
         d="m 7805,5086 c -18,-13 -18,-14 3,-41 l 22,-28 v 42 c 0,46 0,46 -25,27 z"
         inkscape:connector-curvature="0"
         style="fill:#3e687f" />
      <path
         id="svg_32"
         d="m 7900,5054 c -18,-28 -20,-40 -12,-58 8,-17 5,-27 -14,-49 -20,-24 -24,-39 -24,-98 v -69 h 75 75 v 77 c 0,58 -4,81 -17,95 -11,12 -16,32 -14,53 2,32 -23,84 -41,85 -3,0 -16,-16 -28,-36 z"
         inkscape:connector-curvature="0"
         style="fill:#3e687f" />
      <path
         id="svg_33"
         d="m 8040,5049 v -42 l 21,27 c 17,21 19,29 9,41 -21,25 -30,17 -30,-26 z"
         inkscape:connector-curvature="0"
         style="fill:#3e687f" />
      <path
         id="svg_34"
         d="m 7744,5005 c -10,-15 -14,-34 -10,-49 4,-15 0,-28 -9,-36 -10,-9 -15,-32 -15,-76 v -64 h 60 60 v 60 c 0,46 -5,65 -19,79 -14,14 -16,22 -8,30 8,8 6,21 -6,46 -20,41 -31,44 -53,10 z"
         inkscape:connector-curvature="0"
         style="fill:#3e687f" />
      <path
         id="svg_35"
         d="m 8064,5005 c -10,-15 -14,-34 -10,-49 4,-15 0,-28 -9,-36 -10,-9 -15,-32 -15,-76 v -64 h 60 60 v 60 c 0,46 -5,65 -19,79 -14,14 -16,22 -8,30 8,8 6,21 -6,46 -20,41 -31,44 -53,10 z"
         inkscape:connector-curvature="0"
         style="fill:#3e687f" />
      <path
         id="svg_36"
         d="m 7857,5014 c -4,-4 -7,-17 -7,-28 1,-19 1,-20 11,-3 11,19 8,43 -4,31 z"
         inkscape:connector-curvature="0"
         style="fill:#3e687f" />
      <path
         id="svg_37"
         d="m 7990,5006 c 0,-8 5,-18 10,-21 6,-3 10,3 10,14 0,12 -4,21 -10,21 -5,0 -10,-6 -10,-14 z"
         inkscape:connector-curvature="0"
         style="fill:#3e687f" />
      <path
         id="svg_38"
         d="m 7040,4695 v -95 h 45 45 v 95 95 h -45 -45 z"
         inkscape:connector-curvature="0"
         style="fill:#3e687f" />
      <path
         id="svg_39"
         d="m 7928,4683 c 39,-2 105,-2 145,0 39,1 7,3 -73,3 -80,0 -112,-2 -72,-3 z"
         inkscape:connector-curvature="0"
         style="fill:#3e687f" />
      <path
         id="svg_40"
         d="m 8442,3648 c -5,-22 -16,-35 -33,-39 -20,-6 -21,-7 -3,-8 11,-1 25,4 32,11 9,9 12,9 12,0 0,-17 25,-15 40,3 18,21 4,65 -20,65 -13,0 -22,-10 -28,-32 z"
         inkscape:connector-curvature="0"
         style="fill:#3e687f" />
      <path
         id="svg_41"
         d="m 8306,3388 c -19,-27 -21,-61 -4,-56 17,6 40,66 29,73 -6,3 -17,-5 -25,-17 z"
         inkscape:connector-curvature="0"
         style="fill:#3e687f" />
      <path
         id="svg_42"
         d="m 8786,2834 c -3,-9 -6,-26 -6,-39 0,-59 30,-74 50,-25 10,25 10,34 -4,55 -19,29 -31,32 -40,9 z"
         inkscape:connector-curvature="0"
         style="fill:#3e687f" />
      <path
         id="svg_43"
         d="m 8883,2654 c -8,-21 13,-42 28,-27 13,13 5,43 -11,43 -6,0 -13,-7 -17,-16 z"
         inkscape:connector-curvature="0"
         style="fill:#3e687f" />
      <path
         id="svg_44"
         d="m 8623,2605 c -8,-22 17,-70 37,-70 25,0 19,55 -7,72 -21,14 -23,14 -30,-2 z"
         inkscape:connector-curvature="0"
         style="fill:#3e687f" />
      <path
         id="svg_45"
         d="m 8810,2531 c 0,-22 25,-39 38,-27 8,8 -10,38 -26,44 -7,2 -12,-6 -12,-17 z"
         inkscape:connector-curvature="0"
         style="fill:#3e687f" />
      <path
         id="svg_46"
         d="m 8725,2420 c -9,-15 3,-60 15,-60 13,0 13,57 1,65 -5,3 -13,0 -16,-5 z"
         inkscape:connector-curvature="0"
         style="fill:#3e687f" />
      <path
         id="svg_47"
         d="m 10155,2360 c -3,-5 -2,-10 4,-10 5,0 13,5 16,10 3,6 2,10 -4,10 -5,0 -13,-4 -16,-10 z"
         inkscape:connector-curvature="0"
         style="fill:#3e687f" />
      <path
         id="svg_48"
         d="m 8320,2276 c 0,-11 10,-16 31,-16 38,0 35,24 -4,28 -19,2 -27,-1 -27,-12 z"
         inkscape:connector-curvature="0"
         style="fill:#3e687f" />
      <path
         id="svg_49"
         d="m 8550,2255 c 0,-9 5,-15 11,-13 6,2 11,8 11,13 0,5 -5,11 -11,13 -6,2 -11,-4 -11,-13 z"
         inkscape:connector-curvature="0"
         style="fill:#3e687f" />
      <path
         id="svg_50"
         d="m 8616,2198 c -27,-39 -18,-98 15,-98 10,0 26,11 35,25 13,20 14,30 4,60 -13,40 -32,45 -54,13 z"
         inkscape:connector-curvature="0"
         style="fill:#3e687f" />
      <path
         id="svg_51"
         d="m 10180,1471 c 0,-11 4,-22 9,-25 12,-8 34,21 26,34 -11,17 -35,11 -35,-9 z"
         inkscape:connector-curvature="0"
         style="fill:#3e687f" />
      <path
         id="svg_52"
         d="m 8688,8683 c -21,-2 -38,-7 -38,-10 0,-9 124,-153 132,-153 4,0 8,38 8,85 v 85 l -32,-2 c -18,-1 -50,-3 -70,-5 z"
         inkscape:connector-curvature="0"
         style="fill:#3e687f" />
      <path
         id="svg_53"
         d="m 8233,8621 c -24,-4 -44,-9 -45,-12 -2,-2 -1,-38 2,-80 l 5,-75 67,88 c 75,98 76,96 -29,79 z"
         inkscape:connector-curvature="0"
         style="fill:#3e687f" />
      <path
         id="svg_54"
         d="m 8760,8371 c -15,-29 -12,-46 11,-67 18,-16 20,-27 16,-66 -5,-43 -4,-48 14,-48 18,0 20,6 18,50 -2,35 2,55 14,68 21,23 22,46 1,66 -21,22 -61,20 -74,-3 z"
         inkscape:connector-curvature="0"
         style="fill:#3e687f" />
      <path
         id="svg_55"
         d="m 9040,8364 c -8,-1 -37,-6 -63,-9 l -48,-6 30,-37 c 16,-20 48,-57 70,-82 l 40,-45 1,93 c 0,50 -3,91 -7,91 -5,-1 -15,-3 -23,-5 z"
         inkscape:connector-curvature="0"
         style="fill:#3e687f" />
      <path
         id="svg_56"
         d="m 8782,8145 c 0,-16 2,-22 5,-12 2,9 2,23 0,30 -3,6 -5,-1 -5,-18 z"
         inkscape:connector-curvature="0"
         style="fill:#3e687f" />
      <path
         id="svg_57"
         d="m 9253,8063 c -24,-2 -43,-7 -43,-10 0,-3 28,-37 62,-77 34,-39 66,-75 70,-80 4,-6 8,31 8,82 v 92 l -27,-2 c -16,-1 -47,-3 -70,-5 z"
         inkscape:connector-curvature="0"
         style="fill:#3e687f" />
      <path
         id="svg_58"
         d="m 8711,7914 c 0,-11 3,-14 6,-6 3,7 2,16 -1,19 -3,4 -6,-2 -5,-13 z"
         inkscape:connector-curvature="0"
         style="fill:#3e687f" />
      <path
         id="svg_59"
         d="m 9535,7743 c -83,-10 -82,-7 -19,-81 32,-37 64,-74 71,-82 11,-12 13,1 13,78 0,101 5,94 -65,85 z"
         inkscape:connector-curvature="0"
         style="fill:#3e687f" />
      <path
         id="svg_60"
         d="m 3603,5365 c -7,-16 -9,-54 -6,-105 l 6,-80 h 28 29 v 88 c -1,110 -28,158 -57,97 z"
         inkscape:connector-curvature="0"
         style="fill:#3e687f" />
      <path
         id="svg_61"
         d="m 3533,4900 c 0,-25 2,-35 4,-22 2,12 2,32 0,45 -2,12 -4,2 -4,-23 z"
         inkscape:connector-curvature="0"
         style="fill:#3e687f" />
      <path
         id="svg_62"
         d="m 3702,4890 c 0,-19 2,-27 5,-17 2,9 2,25 0,35 -3,9 -5,1 -5,-18 z"
         inkscape:connector-curvature="0"
         style="fill:#3e687f" />
      <path
         id="svg_63"
         d="m 3580,4725 v -155 h 40 40 v 155 155 h -40 -40 z"
         inkscape:connector-curvature="0"
         style="fill:#3e687f" />
      <path
         id="svg_64"
         d="m 3670,4346 c 0,-2 8,-10 18,-17 15,-13 16,-12 3,4 -13,16 -21,21 -21,13 z"
         inkscape:connector-curvature="0"
         style="fill:#3e687f" />
      <path
         id="svg_65"
         d="m 3580,4100 v -150 h 40 40 v 150 150 h -40 -40 z"
         inkscape:connector-curvature="0"
         style="fill:#3e687f" />
      <path
         id="svg_66"
         d="m 3120,5260 c 0,-83 1,-90 20,-90 19,0 20,7 20,90 0,83 -1,90 -20,90 -19,0 -20,-7 -20,-90 z"
         inkscape:connector-curvature="0"
         style="fill:#3e687f" />
      <path
         id="svg_67"
         d="m 4404,5395 c -8,-19 13,-45 34,-45 12,0 13,3 4,12 -7,7 -12,20 -12,30 0,22 -18,24 -26,3 z"
         inkscape:connector-curvature="0"
         style="fill:#3e687f" />
      <path
         id="svg_68"
         d="m 4454,5395 c -8,-19 13,-45 34,-45 12,0 13,3 4,12 -7,7 -12,20 -12,30 0,22 -18,24 -26,3 z"
         inkscape:connector-curvature="0"
         style="fill:#3e687f" />
      <path
         id="svg_69"
         d="m 4630,5391 c 0,-19 26,-48 35,-39 6,6 -18,58 -27,58 -5,0 -8,-8 -8,-19 z"
         inkscape:connector-curvature="0"
         style="fill:#3e687f" />
      <path
         id="svg_70"
         d="m 4680,5391 c 0,-19 26,-48 35,-39 6,6 -18,58 -27,58 -5,0 -8,-8 -8,-19 z"
         inkscape:connector-curvature="0"
         style="fill:#3e687f" />
      <path
         id="svg_71"
         d="m 2317,5333 c -4,-3 -7,-39 -7,-80 v -73 h 35 35 v 80 80 h -28 c -16,0 -32,-3 -35,-7 z"
         inkscape:connector-curvature="0"
         style="fill:#3e687f" />
      <path
         id="svg_72"
         d="m 2420,5306 c 0,-18 -3,-54 -6,-80 l -7,-46 h 37 36 v 80 80 h -30 c -27,0 -30,-3 -30,-34 z"
         inkscape:connector-curvature="0"
         style="fill:#3e687f" />
      <path
         id="svg_73"
         d="m 2520,5260 v -80 h 30 30 v 80 80 h -30 -30 z"
         inkscape:connector-curvature="0"
         style="fill:#3e687f" />
      <path
         id="svg_74"
         d="m 2717,5334 c -4,-4 -7,-40 -7,-81 v -73 h 30 31 l -3,78 c -3,69 -5,77 -23,80 -12,2 -24,0 -28,-4 z"
         inkscape:connector-curvature="0"
         style="fill:#3e687f" />
      <path
         id="svg_75"
         d="m 2830,5260 c 0,-79 0,-80 25,-80 25,0 25,1 25,80 0,79 0,80 -25,80 -25,0 -25,-1 -25,-80 z"
         inkscape:connector-curvature="0"
         style="fill:#3e687f" />
      <path
         id="svg_76"
         d="m 4176,5443 c -3,-3 -6,-40 -6,-82 0,-68 1,-73 15,-55 25,33 17,163 -9,137 z"
         inkscape:connector-curvature="0"
         style="fill:#3e687f" />
      <path
         id="svg_77"
         d="m 2330,4510 v -160 h 50 50 v 160 160 h -50 -50 z"
         inkscape:connector-curvature="0"
         style="fill:#3e687f" />
      <path
         id="svg_78"
         d="m 2480,4510 v -160 h 50 50 v 160 160 h -50 -50 z"
         inkscape:connector-curvature="0"
         style="fill:#3e687f" />
      <path
         id="svg_79"
         d="m 2330,3920 v -160 h 50 50 v 160 160 h -50 -50 z"
         inkscape:connector-curvature="0"
         style="fill:#3e687f" />
      <path
         id="svg_80"
         d="m 2480,3925 v -155 h 50 50 v 155 155 h -50 -50 z"
         inkscape:connector-curvature="0"
         style="fill:#3e687f" />
      <path
         id="svg_81"
         d="m 3100,4730 v -150 h 40 40 v 150 150 h -40 -40 z"
         inkscape:connector-curvature="0"
         style="fill:#3e687f" />
      <path
         id="svg_82"
         d="m 3100,4105 v -155 h 40 40 v 155 155 h -40 -40 z"
         inkscape:connector-curvature="0"
         style="fill:#3e687f" />
      <path
         id="svg_83"
         d="m 7475,2250 c -10,-16 33,-50 63,-50 l 27,1 -33,29 c -34,32 -47,36 -57,20 z"
         inkscape:connector-curvature="0"
         style="fill:#3e687f" />
      <path
         id="svg_84"
         d="m 7084,1914 c -19,-46 -12,-69 16,-54 15,8 20,21 20,50 0,50 -16,51 -36,4 z"
         inkscape:connector-curvature="0"
         style="fill:#3e687f" />
      <path
         id="svg_85"
         d="m 6686,1884 c -10,-25 1,-29 14,-5 6,12 7,21 1,21 -5,0 -12,-7 -15,-16 z"
         inkscape:connector-curvature="0"
         style="fill:#3e687f" />
      <path
         id="svg_86"
         d="m 7425,11840 c -10,-11 -13,-20 -8,-20 13,0 38,29 31,35 -3,3 -13,-4 -23,-15 z"
         inkscape:connector-curvature="0"
         style="fill:#3e687f" />
      <path
         id="svg_87"
         d="m 7394,11762 c 1,-43 4,-52 19,-52 13,0 17,9 17,40 0,28 -4,40 -14,40 -8,0 -16,6 -18,12 -3,7 -4,-11 -4,-40 z"
         inkscape:connector-curvature="0"
         style="fill:#3e687f" />
      <path
         id="svg_88"
         d="m 6982,11667 c -27,-16 -19,-27 20,-27 21,0 28,5 28,20 0,23 -15,25 -48,7 z"
         inkscape:connector-curvature="0"
         style="fill:#3e687f" />
      <path
         id="svg_89"
         d="m 6650,11550 c -12,-8 -12,-10 2,-15 19,-7 38,1 38,16 0,12 -21,11 -40,-1 z"
         inkscape:connector-curvature="0"
         style="fill:#3e687f" />
      <path
         id="svg_90"
         d="m 7255,11327 c -22,-38 -25,-55 -25,-136 0,-51 3,-91 8,-89 4,2 23,11 42,20 20,9 48,35 63,58 25,39 26,46 16,84 -13,50 -32,82 -59,96 -16,9 -22,4 -45,-33 z"
         inkscape:connector-curvature="0"
         style="fill:#3e687f" />
      <path
         id="svg_91"
         d="m 7032,11311 c -18,-32 -22,-55 -22,-129 0,-50 5,-94 10,-97 6,-3 10,0 10,7 0,27 52,147 71,164 20,18 21,18 35,-1 8,-10 14,-15 14,-11 0,26 -64,106 -85,106 -6,0 -21,-17 -33,-39 z"
         inkscape:connector-curvature="0"
         style="fill:#3e687f" />
      <path
         id="svg_92"
         d="m 6851,11284 c -16,-21 -21,-41 -21,-88 0,-66 27,-188 29,-130 1,35 17,54 44,54 17,0 18,-6 15,-53 -3,-47 -1,-53 15,-49 9,2 17,0 17,-6 0,-6 -8,-13 -17,-15 -17,-4 -17,-5 0,-6 10,0 20,5 23,12 8,21 -33,243 -51,277 -19,37 -28,37 -54,4 z"
         inkscape:connector-curvature="0"
         style="fill:#3e687f" />
      <path
         id="svg_93"
         d="m 6696,11218 c -25,-41 -28,-69 -15,-152 l 13,-81 7,68 c 4,46 12,77 27,97 25,33 28,60 10,78 -17,17 -26,15 -42,-10 z"
         inkscape:connector-curvature="0"
         style="fill:#3e687f" />
      <path
         id="svg_94"
         d="m 6563,11143 c -13,-32 -7,-108 12,-168 l 19,-60 9,99 c 6,68 6,106 -2,122 -12,28 -29,31 -38,7 z"
         inkscape:connector-curvature="0"
         style="fill:#3e687f" />
      <path
         id="svg_95"
         d="m 6490,11024 c 0,-45 6,-66 28,-100 48,-77 55,-56 17,51 -13,39 -25,78 -25,88 0,9 -4,17 -10,17 -5,0 -10,-25 -10,-56 z"
         inkscape:connector-curvature="0"
         style="fill:#3e687f" />
      <path
         id="svg_96"
         d="m 6876,10981 c -4,-5 3,-7 14,-4 23,6 26,13 6,13 -8,0 -17,-4 -20,-9 z"
         inkscape:connector-curvature="0"
         style="fill:#3e687f" />
      <path
         id="svg_97"
         d="m 6833,10563 c -10,-3 -13,-52 -13,-195 v -190 l 33,7 c 17,4 35,9 40,12 4,2 7,87 7,189 v 184 l -27,-1 c -16,0 -34,-3 -40,-6 z"
         inkscape:connector-curvature="0"
         style="fill:#3e687f" />
      <path
         id="svg_98"
         d="m 8502,10305 c 0,-16 2,-22 5,-12 2,9 2,23 0,30 -3,6 -5,-1 -5,-18 z"
         inkscape:connector-curvature="0"
         style="fill:#3e687f" />
      <path
         id="svg_99"
         d="m 8472,10265 c 0,-16 2,-22 5,-12 2,9 2,23 0,30 -3,6 -5,-1 -5,-18 z"
         inkscape:connector-curvature="0"
         style="fill:#3e687f" />
      <path
         id="svg_100"
         d="m 9421,10056 c -15,-17 -11,-48 5,-53 17,-6 46,26 42,46 -4,21 -32,25 -47,7 z"
         inkscape:connector-curvature="0"
         style="fill:#3e687f" />
      <path
         id="svg_101"
         d="m 6795,10032 c -11,-2 -31,-11 -45,-22 -21,-16 -23,-20 -10,-37 14,-17 14,-17 -7,0 -22,19 -41,8 -27,-15 4,-7 3,-8 -4,-4 -13,8 -36,-30 -27,-44 4,-6 3,-10 -2,-9 -20,3 -25,-2 -13,-16 11,-13 10,-14 -2,-10 -19,7 -37,-79 -37,-167 0,-54 2,-58 23,-58 22,0 24,5 29,83 6,92 23,134 75,189 39,41 90,56 136,38 88,-33 170,-155 170,-252 0,-49 0,-49 31,-46 29,3 30,4 28,54 -2,56 -44,170 -61,167 -7,-2 -9,4 -5,14 5,12 2,15 -9,10 -12,-4 -14,-1 -11,14 6,22 -6,25 -27,7 -12,-11 -12,-10 -1,5 18,23 7,34 -15,16 -16,-13 -16,-12 -6,8 8,14 9,24 2,28 -5,3 -10,3 -10,-2 0,-4 -5,0 -11,11 -9,15 -13,16 -20,5 -7,-11 -9,-11 -9,2 0,17 -44,34 -60,24 -6,-4 -10,-2 -10,3 0,9 -21,11 -65,4 z"
         inkscape:connector-curvature="0"
         style="fill:#3e687f" />
      <path
         id="svg_102"
         d="m 6880,9808 c -18,-39 -19,-65 -18,-273 l 2,-230 6,220 6,220 2,-197 2,-198 h 26 c 14,0 34,5 45,10 18,10 19,23 19,210 0,160 -3,208 -16,240 -22,55 -49,54 -74,-2 z"
         inkscape:connector-curvature="0"
         style="fill:#3e687f" />
      <path
         id="svg_103"
         d="m 6772,9817 c -37,-44 -42,-83 -40,-314 l 2,-228 6,215 6,215 2,-194 2,-194 36,6 c 67,11 66,9 62,226 -3,172 -5,201 -23,235 -22,45 -37,53 -53,33 z"
         inkscape:connector-curvature="0"
         style="fill:#3e687f" />
      <path
         id="svg_104"
         d="m 9712,8758 c -17,-17 -15,-55 4,-62 14,-5 15,-17 9,-80 -6,-66 -5,-74 12,-78 17,-5 18,0 9,64 -7,52 -7,74 2,86 22,31 25,45 15,61 -13,21 -35,25 -51,9 z"
         inkscape:connector-curvature="0"
         style="fill:#3e687f" />
      <path
         id="svg_105"
         d="m 6825,8707 c -30,-47 -35,-93 -33,-312 l 2,-220 6,210 6,210 2,-187 2,-188 h 24 c 14,0 37,5 51,10 l 27,10 -4,203 c -3,181 -5,206 -24,241 -25,49 -38,54 -59,23 z"
         inkscape:connector-curvature="0"
         style="fill:#3e687f" />
      <path
         id="svg_106"
         d="m 10748,7423 c 7,-3 16,-2 19,1 4,3 -2,6 -13,5 -11,0 -14,-3 -6,-6 z"
         inkscape:connector-curvature="0"
         style="fill:#3e687f" />
      <path
         id="svg_107"
         d="m 10628,7413 c 7,-3 16,-2 19,1 4,3 -2,6 -13,5 -11,0 -14,-3 -6,-6 z"
         inkscape:connector-curvature="0"
         style="fill:#3e687f" />
      <path
         id="svg_108"
         d="m 4813,5410 c 0,-47 2,-66 4,-42 2,23 2,61 0,85 -2,23 -4,4 -4,-43 z"
         inkscape:connector-curvature="0"
         style="fill:#3e687f" />
      <path
         id="svg_109"
         d="m 5658,5228 c -3,-24 -3,-46 -1,-50 6,-12 141,-9 148,2 3,6 0,16 -7,23 -47,45 -83,67 -108,67 -26,0 -28,-4 -32,-42 z"
         inkscape:connector-curvature="0"
         style="fill:#3e687f" />
      <path
         id="svg_110"
         d="m 5850,5196 c 0,-2 8,-10 18,-17 15,-13 16,-12 3,4 -13,16 -21,21 -21,13 z"
         inkscape:connector-curvature="0"
         style="fill:#3e687f" />
      <path
         id="svg_111"
         d="m 4759,5058 c -2,-127 -3,-138 -18,-166 -11,-21 -17,-22 -182,-22 h -170 l 15,22 c 12,17 16,49 16,126 0,92 -2,103 -15,92 -11,-9 -15,-34 -15,-97 0,-61 -4,-91 -16,-109 -14,-21 -16,-46 -11,-162 2,-75 10,-148 15,-162 11,-25 11,-24 11,8 1,36 0,36 35,22 21,-7 26,-6 26,5 0,8 9,15 19,15 13,0 24,13 35,40 20,49 20,50 1,50 -8,0 -21,-16 -29,-35 -30,-72 -67,-25 -50,64 l 9,46 60,3 c 33,2 102,1 153,-3 l 92,-7 v -74 c 0,-72 1,-74 25,-74 h 25 l 2,108 c 0,59 0,117 -1,130 -2,22 0,22 108,22 106,0 110,-1 114,-22 2,-13 5,-4 6,20 l 1,42 h -131 -130 l 15,22 c 11,15 16,46 16,95 v 73 h 110 c 91,0 110,3 110,15 0,13 -21,15 -125,15 h -125 z"
         inkscape:connector-curvature="0"
         style="fill:#3e687f" />
      <path
         id="svg_112"
         d="m 4580,5130 c -7,-14 -7,-20 0,-20 16,0 12,-53 -6,-78 -9,-13 -14,-25 -11,-28 11,-12 40,54 42,98 3,51 -7,61 -25,28 z"
         inkscape:connector-curvature="0"
         style="fill:#3e687f" />
      <path
         id="svg_113"
         d="m 5098,5052 c -10,-2 -18,-8 -18,-13 0,-13 27,-11 35,2 9,13 4,16 -17,11 z"
         inkscape:connector-curvature="0"
         style="fill:#3e687f" />
      <path
         id="svg_114"
         d="m 4607,5038 c -3,-7 -12,-29 -20,-48 -15,-34 -14,-36 3,-37 10,-1 21,6 24,15 3,9 9,23 12,31 4,9 2,11 -5,7 -15,-10 -14,17 1,32 8,8 8,12 1,12 -6,0 -13,-6 -16,-12 z"
         inkscape:connector-curvature="0"
         style="fill:#3e687f" />
      <path
         id="svg_115"
         d="m 5153,4992 c -13,-2 -23,-8 -23,-13 0,-13 37,-11 45,2 9,14 5,16 -22,11 z"
         inkscape:connector-curvature="0"
         style="fill:#3e687f" />
      <path
         id="svg_116"
         d="m 5250,4985 c -26,-10 -31,-15 -19,-19 19,-8 69,9 69,24 0,12 -4,12 -50,-5 z"
         inkscape:connector-curvature="0"
         style="fill:#3e687f" />
      <path
         id="svg_117"
         d="m 5420,4980 -35,-7 37,-2 c 20,0 40,4 43,9 7,11 7,11 -45,0 z"
         inkscape:connector-curvature="0"
         style="fill:#3e687f" />
      <path
         id="svg_118"
         d="m 5630,4980 -35,-7 38,-2 c 20,0 37,4 37,9 0,6 -1,9 -2,9 -2,-1 -19,-5 -38,-9 z"
         inkscape:connector-curvature="0"
         style="fill:#3e687f" />
      <path
         id="svg_119"
         d="m 4613,4953 c -16,-16 -18,-23 -8,-23 8,0 19,9 25,21 16,29 9,29 -17,2 z"
         inkscape:connector-curvature="0"
         style="fill:#3e687f" />
      <path
         id="svg_120"
         d="m 5000,4829 c 0,-9 -25,-10 -87,-5 -72,5 -85,4 -72,-6 9,-7 19,-23 23,-35 19,-59 120,-99 130,-50 10,48 16,107 11,107 -3,0 -5,-5 -5,-11 z"
         inkscape:connector-curvature="0"
         style="fill:#3e687f" />
      <path
         id="svg_121"
         d="m 4559,4623 c -13,-16 -12,-17 4,-4 16,13 21,21 13,21 -2,0 -10,-8 -17,-17 z"
         inkscape:connector-curvature="0"
         style="fill:#3e687f" />
      <path
         id="svg_122"
         d="m 4400,4311 c 0,-215 1,-221 20,-221 20,0 20,5 18,217 -3,198 -5,218 -20,221 -17,3 -18,-12 -18,-217 z"
         inkscape:connector-curvature="0"
         style="fill:#3e687f" />
      <path
         id="svg_123"
         d="m 4463,4320 c 0,-47 2,-66 4,-42 2,23 2,61 0,85 -2,23 -4,4 -4,-43 z"
         inkscape:connector-curvature="0"
         style="fill:#3e687f" />
      <path
         id="svg_124"
         d="m 4256,4374 c -3,-8 1,-14 9,-14 20,0 28,17 11,23 -8,3 -17,-1 -20,-9 z"
         inkscape:connector-curvature="0"
         style="fill:#3e687f" />
      <path
         id="svg_125"
         d="m 4797,4313 c -4,-3 -7,-13 -7,-22 1,-13 3,-13 11,2 11,19 8,33 -4,20 z"
         inkscape:connector-curvature="0"
         style="fill:#3e687f" />
      <path
         id="svg_126"
         d="m 4473,4150 c 0,-36 2,-50 4,-32 2,17 2,47 0,65 -2,17 -4,3 -4,-33 z"
         inkscape:connector-curvature="0"
         style="fill:#3e687f" />
      <path
         id="svg_127"
         d="m 5068,4113 c -5,-128 5,-166 29,-104 6,17 7,35 2,42 -5,8 -9,44 -9,82 0,98 -17,82 -22,-20 z"
         inkscape:connector-curvature="0"
         style="fill:#3e687f" />
      <path
         id="svg_128"
         d="m 5470,4087 c 0,-41 -5,-78 -11,-84 -9,-9 -8,-21 5,-47 19,-40 31,-45 40,-18 3,9 11,25 18,34 10,14 9,20 -5,36 -12,14 -17,36 -17,85 0,53 -3,67 -15,67 -12,0 -15,-15 -15,-73 z"
         inkscape:connector-curvature="0"
         style="fill:#3e687f" />
      <path
         id="svg_129"
         d="m 204,3019 c -9,-16 12,-33 31,-25 14,5 15,9 5,21 -15,18 -26,19 -36,4 z"
         inkscape:connector-curvature="0"
         style="fill:#3e687f" />
      <path
         id="svg_130"
         d="m 275,3019 c -10,-16 1,-22 26,-14 17,6 19,9 8,16 -19,12 -26,11 -34,-2 z"
         inkscape:connector-curvature="0"
         style="fill:#3e687f" />
      <path
         id="svg_131"
         d="m 45,3003 c -41,-12 -46,-16 -31,-25 11,-6 41,-7 79,-2 34,5 68,8 75,7 18,-1 15,24 -4,31 -25,9 -65,6 -119,-11 z"
         inkscape:connector-curvature="0"
         style="fill:#3e687f" />
      <path
         id="svg_132"
         d="m 145,2940 c 3,-5 15,-10 26,-10 10,0 19,5 19,10 0,6 -12,10 -26,10 -14,0 -23,-4 -19,-10 z"
         inkscape:connector-curvature="0"
         style="fill:#3e687f" />
      <path
         id="svg_133"
         d="m 30,2930 c 0,-12 47,-12 75,0 15,6 8,9 -27,9 -27,1 -48,-3 -48,-9 z"
         inkscape:connector-curvature="0"
         style="fill:#3e687f" />
      <path
         id="svg_134"
         d="m 138,2893 c -16,-2 -28,-9 -28,-14 0,-12 120,-2 155,12 21,8 -75,10 -127,2 z"
         inkscape:connector-curvature="0"
         style="fill:#3e687f" />
      <path
         id="svg_135"
         d="m 250,2870 c -8,-5 -27,-11 -42,-15 -16,-3 -28,-10 -28,-15 0,-13 80,-13 100,0 13,8 13,11 0,24 -9,9 -21,11 -30,6 z"
         inkscape:connector-curvature="0"
         style="fill:#3e687f" />
      <path
         id="svg_136"
         d="m 20,2824 c 0,-31 7,-33 72,-19 36,7 61,8 67,2 5,-5 15,-7 21,-5 27,9 -38,35 -98,40 -59,4 -62,3 -62,-18 z"
         inkscape:connector-curvature="0"
         style="fill:#3e687f" />
      <path
         id="svg_137"
         d="m 205,2800 c -3,-5 -2,-10 4,-10 5,0 13,5 16,10 3,6 2,10 -4,10 -5,0 -13,-4 -16,-10 z"
         inkscape:connector-curvature="0"
         style="fill:#3e687f" />
      <path
         id="svg_138"
         d="m 1017,2699 c -89,-11 -179,-30 -224,-45 -63,-22 -86,-25 -134,-20 -64,8 -89,-7 -42,-25 32,-12 87,-6 233,26 58,13 159,31 225,39 180,24 195,27 195,37 0,13 -86,9 -253,-12 z"
         inkscape:connector-curvature="0"
         style="fill:#3e687f" />
      <path
         id="svg_139"
         d="m 50,2322 c 0,-14 11,-21 26,-15 21,8 17,23 -6,23 -11,0 -20,-4 -20,-8 z"
         inkscape:connector-curvature="0"
         style="fill:#3e687f" />
      <path
         id="svg_140"
         d="m 140,2265 c 0,-8 2,-15 4,-15 2,0 6,7 10,15 3,8 1,15 -4,15 -6,0 -10,-7 -10,-15 z"
         inkscape:connector-curvature="0"
         style="fill:#3e687f" />
      <path
         id="svg_141"
         d="m 7234,1345 c -8,-21 3,-45 20,-45 16,0 31,34 21,50 -9,15 -35,12 -41,-5 z"
         inkscape:connector-curvature="0"
         style="fill:#3e687f" />
      <path
         id="svg_142"
         d="m 7367,1300 c -49,-31 -59,-58 -37,-101 23,-41 60,-19 99,58 40,80 19,94 -62,43 z"
         inkscape:connector-curvature="0"
         style="fill:#3e687f" />
      <path
         id="svg_143"
         d="m 7057,1284 c -12,-12 -8,-50 8,-80 8,-16 15,-42 15,-57 0,-28 29,-65 77,-97 22,-15 22,-16 8,-90 l -15,-74 44,-46 c 63,-66 77,-89 65,-112 -8,-14 -22,-18 -70,-18 -45,0 -61,-4 -66,-16 -7,-18 60,-118 99,-147 38,-28 54,-13 28,27 -11,19 -20,39 -20,46 0,20 28,-7 85,-85 92,-124 114,-131 135,-46 7,28 16,51 20,51 5,0 12,-20 16,-45 6,-44 36,-81 56,-69 17,11 8,109 -14,154 -22,41 -27,45 -82,57 -70,16 -84,8 -62,-35 18,-35 21,-62 7,-62 -17,0 -50,51 -57,87 -6,31 -3,38 30,65 20,16 36,36 36,44 0,8 5,14 10,14 6,0 10,-9 10,-19 0,-32 11,-51 31,-51 27,0 206,98 213,117 16,42 -102,149 -206,187 -42,15 -48,21 -48,46 0,33 20,43 56,30 36,-14 44,-13 44,9 0,33 -11,51 -42,67 -39,20 -77,6 -113,-42 -15,-19 -35,-34 -46,-34 -26,0 -126,95 -176,168 -37,54 -60,71 -76,56 z"
         inkscape:connector-curvature="0"
         style="fill:#3e687f" />
      <path
         id="svg_144"
         d="m 9781,1126 c -11,-13 -10,-21 6,-48 16,-27 26,-33 51,-32 33,2 122,41 122,53 0,14 -51,31 -109,37 -45,5 -59,3 -70,-10 z"
         inkscape:connector-curvature="0"
         style="fill:#3e687f" />
      <path
         id="svg_145"
         d="m 7570,971 c 0,-24 23,-43 44,-35 21,8 21,40 0,48 -28,11 -44,6 -44,-13 z"
         inkscape:connector-curvature="0"
         style="fill:#3e687f" />
      <path
         id="svg_146"
         d="m 10785,840 c -13,-21 99,-190 126,-190 28,0 -20,116 -71,170 -29,31 -45,37 -55,20 z"
         inkscape:connector-curvature="0"
         style="fill:#3e687f" />
      <path
         id="svg_147"
         d="m 7713,744 c -7,-18 12,-34 40,-34 12,0 17,8 17,25 0,20 -5,25 -25,25 -14,0 -28,-7 -32,-16 z"
         inkscape:connector-curvature="0"
         style="fill:#3e687f" />
      <path
         id="svg_148"
         d="m 11077,729 c -3,-11 -3,-45 0,-75 4,-38 1,-67 -11,-98 -24,-63 -35,-69 -81,-46 -47,24 -68,25 -86,4 -11,-13 -10,-23 3,-58 55,-142 67,-177 73,-229 4,-31 4,-57 0,-57 -3,0 -37,18 -75,40 -38,22 -71,40 -74,40 -22,0 24,-168 55,-207 9,-10 61,-13 234,-13 199,0 223,2 237,18 38,43 62,122 38,122 -6,0 -33,-12 -61,-26 -31,-15 -63,-24 -82,-22 -28,3 -32,7 -35,34 -2,20 8,53 28,92 17,33 39,95 50,138 29,113 17,130 -47,69 -75,-70 -102,-38 -114,136 -4,67 -11,129 -14,140 -8,25 -31,24 -38,-2 z"
         inkscape:connector-curvature="0"
         style="fill:#3e687f" />
      <path
         id="svg_149"
         d="m 9873,713 c -21,-8 -15,-29 22,-77 38,-49 34,-54 -22,-31 -84,35 -89,17 -43,-144 33,-114 34,-121 21,-121 -5,0 -17,20 -27,45 -19,50 -37,54 -42,11 -5,-39 36,-166 55,-173 10,-4 23,2 35,18 46,57 59,69 77,69 21,0 37,-33 46,-100 11,-75 14,-79 87,-116 66,-33 70,-37 66,-65 -4,-29 -4,-29 42,-29 26,0 49,2 52,5 3,3 1,28 -4,55 -7,37 -5,58 4,78 12,24 19,27 61,27 39,1 53,6 78,31 29,29 29,31 17,70 -15,46 -48,55 -58,15 -12,-51 -71,-53 -78,-2 -3,17 1,21 20,19 19,-3 24,2 26,30 2,18 -1,32 -7,32 -7,0 -11,31 -11,83 0,96 -22,154 -55,149 -28,-5 -197,-81 -213,-96 -11,-11 -9,-18 12,-43 34,-41 33,-45 -10,-37 -23,4 -45,2 -61,-7 -23,-13 -27,-11 -48,15 -26,33 -48,97 -37,108 5,5 22,-12 40,-37 17,-25 36,-45 41,-45 6,0 13,16 17,35 3,19 12,39 20,46 23,19 16,54 -18,104 -35,49 -84,86 -105,78 z"
         inkscape:connector-curvature="0"
         style="fill:#3e687f" />
      <path
         id="svg_150"
         d="m 7574,596 c -10,-27 44,-182 69,-198 24,-15 29,-7 25,40 -9,84 -78,200 -94,158 z"
         inkscape:connector-curvature="0"
         style="fill:#3e687f" />
      <path
         id="svg_151"
         d="m 12164,564 c -13,-19 -14,-28 -5,-37 15,-15 45,3 49,30 5,32 -25,36 -44,7 z"
         inkscape:connector-curvature="0"
         style="fill:#3e687f" />
      <path
         id="svg_152"
         d="m 12526,392 c -9,-18 -16,-38 -14,-44 6,-17 40,41 36,60 -3,13 -9,8 -22,-16 z"
         inkscape:connector-curvature="0"
         style="fill:#3e687f" />
      <path
         id="svg_153"
         d="m 7405,370 c -14,-23 42,-79 65,-65 13,8 -14,61 -35,69 -22,8 -23,8 -30,-4 z"
         inkscape:connector-curvature="0"
         style="fill:#3e687f" />
      <path
         id="svg_154"
         d="m 12433,286 c -15,-13 -25,-27 -22,-30 10,-10 56,11 62,28 10,26 -10,27 -40,2 z"
         inkscape:connector-curvature="0"
         style="fill:#3e687f" />
      <path
         id="svg_155"
         d="m 10487,284 c -3,-4 -3,-20 0,-38 11,-58 43,-77 43,-25 0,47 -24,82 -43,63 z"
         inkscape:connector-curvature="0"
         style="fill:#3e687f" />
      <path
         id="svg_156"
         d="m 9894,165 c -7,-18 13,-45 33,-45 23,0 28,31 8,46 -24,18 -34,18 -41,-1 z"
         inkscape:connector-curvature="0"
         style="fill:#3e687f" />
      <path
         id="svg_157"
         d="m 6250,20 c 0,-6 40,-10 100,-10 60,0 100,4 100,10 0,6 -40,10 -100,10 -60,0 -100,-4 -100,-10 z"
         inkscape:connector-curvature="0"
         style="fill:#3e687f" />
    </g>
  </g>
</svg>
